<?xml version="1.0" encoding="UTF-8"?><svg xmlns="http://www.w3.org/2000/svg" viewBox="0 0 191.29 191.41"><defs><style>.d{fill:#009147;}</style></defs><g id="a"/><g id="b"><g id="c"><g><path class="d" d="M123.22,4.04h0C92.16-5.45,55.52,1.68,29.72,26.36,55.52,1.68,92.16-5.45,123.22,4.04Z"/><path class="d" d="M123.22,4.04h0c-.04,.16-.05,.33-.14,.47,.08-.13,.1-.31,.14-.47Z"/><path class="d" d="M187.3,67.75c-3.47,2.29-4.9,4.79-3.82,9.15,3.09,12.46,2.65,25.07,.03,37.58-4.01,19.09-13.56,35.14-28,48.06-13.83,12.38-30.02,19.95-48.64,22.19-14.83,1.78-29.25,.28-43.1-5.1-18.44-7.16-33.19-19.08-43.8-35.86C5.65,121.12,2.25,96.71,9.36,71.08c6.01-21.67,18.9-38.62,37.8-50.86C67.7,6.93,90.1,2.99,113.95,7.79c4.19,.84,6.95,.24,9.13-3.28,.08-.13,.1-.31,.14-.47C92.16-5.45,55.52,1.68,29.72,26.36c-5.96,5.7-11.33,12.32-15.93,19.9C-7.99,82.12-4.41,130.53,27.7,162.97c31.25,31.58,79.04,37.19,116.34,15.19,39.76-23.45,55.35-68.71,43.26-110.41Z"/><path class="d" d="M105.58,36.35c.09-2.17-.8-3.17-3.06-3.07-5.62,.23-11.32-.16-16.86,.63-13.39,1.9-25.13,7.71-34.53,17.43-13.14,13.59-19.16,30.01-17.88,49,.71,10.58,3.77,20.49,9.63,29.24,13.61,20.32,32.92,29.87,57.3,28.45,17.7-1.04,32.48-8.59,43.8-22.26,10.57-12.76,15.18-27.67,14.22-44.2-.33-5.66-.56-5.65-6.16-6.03-.06,0-.13,.09-.21,.15,2.43,17.12-1.34,32.64-12.44,46.06-11.2,13.55-25.87,20.68-43.3,20.72-32.02,.07-57.21-25.21-57.23-57.13-.01-15.58,5.79-29.19,17.14-40.15,13.92-13.44,30.58-18.25,49.74-15.67-.06-1.05-.21-2.11-.17-3.16Z"/><path class="d" d="M117.86,36.34c1.25,8.62,2.71,17.2,4.15,25.79,.29,1.7,0,2.92-1.29,4.2-7.7,7.58-15.31,15.25-22.95,22.89-1.29,1.29-2.64,2.54-3.86,3.9-1.32,1.48-1.63,3.3-.14,4.68,1.38,1.28,3.1,.83,4.51-.38,.44-.38,.83-.82,1.24-1.23,8.52-8.52,17.02-17.07,25.61-25.52,.81-.8,2.27-1.4,3.39-1.34,2.47,.13,4.91,.75,7.36,1.14,6.96,1.11,13.92,2.2,20.28,3.2,4.38-.06,7.93-.79,10.71-3.51,6.36-6.21,12.68-12.46,18.96-18.75,4.63-4.63,3.39-9.28-2.93-11.11-7.49-2.17-14.99-4.35-22.51-6.4-1.63-.44-2.46-1.14-2.92-2.83-2.08-7.69-4.28-15.34-6.52-22.99-1.7-5.82-6.4-7.04-10.76-2.82-5.91,5.73-11.75,11.53-17.64,17.27-3.93,3.82-5.46,8.51-4.69,13.83Zm40.66,3.27c7.95,2.24,15.95,4.29,23.89,6.39-3.21,3.43-6.21,6.74-9.33,9.95-2.95,3.04-6.06,5.92-9.03,8.94-2.34,2.38-5.13,3.26-8.37,2.76-7.53-1.16-15.05-2.34-22.58-3.53-.22-.04-.42-.22-.82-.43,.44-.55,.8-1.06,1.23-1.5,7.04-7.17,14.12-14.31,21.12-21.52,1.18-1.21,2.18-1.54,3.89-1.06Zm-32.74-11.83c6.29-6.37,12.74-12.6,19.33-19.08,.22,.7,.47,1.34,.64,2.01,2.02,7.52,4.05,15.03,5.99,22.57,.21,.81,.11,2.11-.4,2.62-7.63,7.65-15.35,15.2-23.06,22.77-.15,.15-.42,.17-.87,.35-.77-4.82-1.53-9.54-2.28-14.25-.44-2.78-.84-5.58-1.32-8.35-.55-3.17-.37-6.28,1.97-8.64Z"/><path class="d" d="M90.85,75.39c4.21-.83,6.77-2.93,9.47-6.03-11.85-2.02-23.77,3.99-28.58,14.04-5.75,12-2.29,25.99,7.28,33.32,8.69,6.66,21.06,8.1,31.93,1.07,8.36-5.41,13.55-18.11,10.84-26.87-1.69,1.61-3.34,3.1-4.88,4.7-.41,.42-.67,1.18-.67,1.78-.02,9.56-9.56,18.93-20.14,18.88-11.43-.05-20.05-7.31-21.22-19.15-.91-9.22,4.2-19.43,15.98-21.74Z"/></g></g></g></svg>