<?xml version="1.0" encoding="UTF-8"?><svg xmlns="http://www.w3.org/2000/svg" viewBox="0 0 191.33 191.17"><defs><style>.d{fill:#084a7a;}</style></defs><g id="a"/><g id="b"><g id="c"><g><path class="d" d="M95.76,0C43.05-.16,.2,41.35,0,95.35c-.19,53.01,41.67,95.75,95.54,95.81,53.02,.06,95.01-41.79,95.78-95.48C190.77,42.89,149.66,.16,95.76,0Zm-.16,185.43c-49.64-.21-89.78-40.28-89.81-89.77C5.75,45.87,46.17,5.72,95.7,5.79c49.53,.07,89.71,40.25,89.69,89.85-.03,49.47-40.14,89.57-89.79,89.79Z"/><path class="d" d="M134.94,48.62c-1.75-.12-3.64,.25-5.33,.8-16.79,5.47-33.51,11.16-50.34,16.48-6.97,2.2-11.17,6.46-13.37,13.39-5.39,16.99-11.11,33.88-16.65,50.83-1.9,5.8-.11,10.71,4.79,12.06,2.33,.64,5.2,.58,7.5-.16,17.28-5.6,34.46-11.47,51.7-17.21,5.86-1.95,9.68-5.77,11.63-11.66,5.69-17.15,11.47-34.28,17.19-51.42,.44-1.33,.69-2.72,.86-3.42,.15-5.69-2.96-9.35-7.95-9.7Zm1.31,11.13c-5.54,17.21-11.25,34.36-16.84,51.55-1.34,4.12-3.92,6.74-8.05,8.08-17.2,5.59-34.37,11.27-51.56,16.91-.7,.23-1.44,.38-1.87,.5-2.95,0-4.18-2-3.21-4.96,1.92-5.83,3.92-11.63,5.88-17.45,3.99-11.88,8.02-23.75,11.92-35.66,1.05-3.22,3-5.14,6.19-6.19,17.56-5.83,35.07-11.79,52.65-17.56,1.37-.45,3.56-.34,4.51,.48,.8,.69,.81,2.97,.38,4.29Z"/><path class="d" d="M95.92,83.69c-6.66-.32-12.02,4.8-12.23,11.68-.2,6.61,4.73,11.77,11.57,12.1,6.6,.32,12.03-4.86,12.23-11.68,.2-6.56-4.79-11.77-11.57-12.1Zm-.43,17.9c-3.33-.07-5.95-2.75-5.91-6.05,.05-3.39,2.92-6.13,6.28-5.97,3.36,.16,5.85,2.85,5.74,6.21-.1,3.39-2.72,5.87-6.11,5.81Z"/></g></g></g></svg>