<?xml version="1.0" encoding="UTF-8" standalone="no"?>
<!-- Created with Inkscape (http://www.inkscape.org/) -->

<svg
   version="1.1"
   id="svg2"
   width="337"
   height="193.38002"
   viewBox="0 0 337 193.38002"
   xmlns="http://www.w3.org/2000/svg"
   xmlns:svg="http://www.w3.org/2000/svg">
  <defs
     id="defs6" />
  <g
     id="g8"
     transform="translate(-58,-68.5)">
    <path
       style="fill:#0a4a7a"
       d="M 118.5,260.60118 C 105.51843,256.49564 96.106325,246.63153 92.402168,233.25 L 90.672098,227 H 76.270308 C 68.255134,227 61.010751,226.54094 59.934259,225.96482 58.258061,225.06774 58,223.8112 58,216.5466 58,205.911 58.363482,205 62.606989,205 H 66 l 0.0056,-16.75 c 0.0031,-9.2125 0.463997,-18.40048 1.024289,-20.41773 1.232384,-4.43703 6.557333,-9.35291 11.703554,-10.80446 C 81.825052,156.15577 127.43878,150 130.80885,150 c 0.54886,0 2.66188,-7.0875 4.69561,-15.75 3.91704,-16.6843 6.01467,-21.46863 12.04977,-27.48348 7.57255,-7.547119 10.27437,-8.226133 34.16944,-8.587383 L 202.94735,97.858275 203.22367,83.179137 203.5,68.5 h 91 91 l 0.25694,68.25 0.25694,68.25 h 3.88607 C 394.698,205 395,205.68372 395,216.5466 c 0,7.2646 -0.25806,8.52114 -1.93426,9.41822 C 392.0019,226.53417 385.77568,227 379.22969,227 H 367.3279 l -1.72777,6.25 c -3.26276,11.80266 -10.5296,20.48203 -21.42498,25.58959 -4.95932,2.32484 -6.93649,2.66041 -15.67515,2.66041 -8.71498,0 -10.72218,-0.33862 -15.62001,-2.63517 C 301.02351,253.30545 293.65774,243.6927 290.57076,229.75 L 289.9619,227 h -60.78062 -60.78061 l -2.1928,7.45329 c -3.62072,12.3068 -13.60813,22.50932 -25.48842,26.03739 -6.08399,1.80674 -16.6892,1.85948 -22.21945,0.1105 z m 26.35541,-8.1159 C 156.38129,246.20544 162.52177,235.13289 161.76158,222 161.04655,209.64726 154.75249,200.05913 143.5,194.18098 c -4.31111,-2.25207 -6.24001,-2.61194 -14,-2.61194 -7.75999,0 -9.68889,0.35987 -14,2.61194 -11.25249,5.87815 -17.546549,15.46628 -18.261581,27.81902 -0.869092,15.01424 7.276621,27.31251 21.643861,32.67757 2.30822,0.86194 6.69446,1.23776 12.11772,1.03826 7.14695,-0.2629 9.35249,-0.77715 13.85541,-3.23055 z m -20.1982,-10.99359 C 113.3483,238.62024 107.84324,226.47011 112.88073,215.5 c 2.1848,-4.75782 4.41489,-6.88992 9.37375,-8.96186 6.48741,-2.71061 14.92371,-1.34654 20.10015,3.25 4.95614,4.40092 7.05346,14.90606 4.29433,21.5096 -1.2377,2.96223 -7.74359,9.66974 -9.43376,9.72612 -0.39336,0.0131 -2.31118,0.39509 -4.26183,0.84882 -2.22539,0.51764 -5.31599,0.37571 -8.29616,-0.38099 z m 11.93463,-6.95991 c 7.68369,-5.03454 7.35639,-17.92159 -0.55911,-22.01485 -9.28564,-4.8018 -19.35242,1.4021 -19.2084,11.83765 0.13451,9.74643 11.49692,15.5963 19.76751,10.1772 z m 206.21937,18.4047 c 24.33639,-12.16104 24.28185,-45.96334 -0.0946,-58.65205 -4.54593,-2.3663 -6.37361,-2.71539 -14.21657,-2.71539 -7.76537,0 -9.68591,0.35885 -14,2.61587 -19.18791,10.03861 -24.5441,34.72082 -10.97478,50.57352 6.68447,7.8093 14.27126,11.13237 25.56506,11.19768 6.51906,0.0377 8.4555,-0.38847 13.72093,-3.01963 z m -19.154,-11.44479 c -11.29869,-2.86885 -16.75732,-15.06672 -11.71375,-26.17555 4.67484,-10.29667 19.31104,-13.40999 28.61969,-6.08781 5.60513,4.409 8.04358,14.99045 5.08581,22.06941 -1.2377,2.96223 -7.74359,9.66974 -9.43376,9.72612 -0.39336,0.0131 -2.31118,0.39509 -4.26183,0.84882 -2.22539,0.51764 -5.31599,0.37571 -8.29616,-0.38099 z m 11.93463,-6.95991 c 3.77336,-2.4724 5.72886,-6.27153 5.65751,-10.99134 C 341.13605,216.04558 336.00641,211 328.5,211 c -7.73596,0 -12.5,5.07484 -12.5,13.31548 0,9.92819 11.1544,15.74472 19.59184,10.2163 z M 91.495202,217.75 c 0.359761,-1.7875 0.875841,-4.0375 1.146843,-5 C 93.095112,211.14087 91.962131,211 78.567388,211 H 64 v 5 5 H 77.420545 90.841089 Z M 203,161.89566 v -59.10434 l -19.75,0.38929 c -18.55688,0.36578 -20.05206,0.53822 -24.75,2.85435 l -5,2.46504 21.20253,0.5 c 14.08227,0.33209 21.58969,0.88802 22.35543,1.65543 0.78825,0.78998 1.03617,5.0599 0.78382,13.5 -0.34278,11.46504 -0.58114,12.72926 -3.34558,17.74381 -2.10752,3.82293 -4.55899,6.45048 -8.3969,9 l -5.42039,3.60076 -26.08946,0.60952 c -20.85209,0.48717 -30.90736,1.23916 -50.08945,3.746 -13.2,1.72506 -24.302974,3.13828 -24.673275,3.14048 -0.370301,0.002 -2.057801,1.169 -3.75,2.59289 -5.383402,4.52984 -4.318691,5.31066 7.673275,5.62728 L 94.5,170.5 l -0.06307,4.75359 c -0.117126,8.82832 -7.864496,16.36399 -17.997979,17.50618 L 72,193.2601 V 199.13005 205 h 11.863999 11.863999 l 2.857421,-4.12326 c 5.644061,-8.14438 16.401361,-14.15253 27.721541,-15.483 5.92869,-0.6968 15.16621,1.27652 21.78681,4.6541 8.87026,4.52527 16.69533,15.20749 18.99503,25.93064 L 168.16573,221 H 185.58286 203 Z M 290.4952,217.75 c 0.35976,-1.7875 0.87584,-4.0375 1.14684,-5 0.46359,-1.6465 -1.96562,-1.75 -41.07465,-1.75 H 209 v 5 5 h 40.42054 40.42055 z M 389,216 v -5 h -12.10699 c -10.08352,0 -12.01534,0.23883 -11.55863,1.42899 0.30159,0.78594 0.84982,3.03594 1.21828,5 L 367.22258,221 H 378.11129 389 Z m -91.41458,-15.12326 c 14.07087,-20.30427 47.75829,-20.30427 61.82916,0 L 362.272,205 H 371.136 380 V 139.5 74 H 294.5 209 v 65.5 65.5 h 42.864 42.864 z M 221.2,167.8 c -0.7109,-0.7109 -1.2,-4.13178 -1.2,-8.39301 0,-7.94295 0.3692,-8.40699 6.68878,-8.40699 2.38684,0 3.38391,-0.40365 3.08766,-1.25 -0.24065,-0.6875 -2.61964,-9.8 -5.28666,-20.25 l -4.84913,-19 5.98494,-9.5 5.98495,-9.5 h 62.89718 62.89718 l 5.99537,9.38172 5.99537,9.38172 -5.05598,20.31928 -5.05599,20.31928 4.60817,0.299 4.60816,0.299 0.295,7.91317 c 0.21083,5.65526 -0.0745,8.14758 -1,8.73469 -0.71225,0.45183 -33.7175,0.82841 -73.345,0.83683 -54.72285,0.0116 -72.33859,-0.27328 -73.25,-1.18469 z M 363,160 v -3 H 294.5 226 v 3 3 H 294.5 363 Z M 353,132.5 V 114 h -58 -58 v 18.5 18.5 h 58 58 z M 231,122 c 0,-7.33333 -0.16667,-8 -2,-8 -1.1,0 -2.00577,0.3375 -2.01282,0.75 -0.022,1.28843 3.36141,15.25 3.69566,15.25 0.17444,0 0.31716,-3.6 0.31716,-8 z m 129.81179,-0.25 1.98391,-7.75 h -2.39785 C 358.06313,114 358,114.215 358,122.16667 c 0,4.49166 0.18627,7.97916 0.41394,7.75 0.22767,-0.22917 1.3067,-3.90417 2.39785,-8.16667 z m -0.42295,-15 c -0.40106,-0.6875 -2.02666,-3.16603 -3.61246,-5.50785 l -2.88326,-4.257843 -59.62186,0.257847 -59.62185,0.257846 -3.35402,5.25 -3.35401,5.25 h 66.58833 c 52.9929,0 66.43944,-0.25521 65.85913,-1.25 z M 81.583108,185.39354 C 84.46827,184.02444 89,178.67111 89,176.63197 89,176.28438 85.175,176 80.5,176 H 72 v 5.5 c 0,5.48344 0.0093,5.5 3.098871,5.5 1.704379,0 4.622286,-0.72291 6.484237,-1.60646 z M 180.5,147.82124 c 4.01426,-2.20865 9.13068,-7.66703 10.43867,-11.13634 C 191.5224,135.1366 192,129.6241 192,124.4349 V 115 h -21.97695 -21.97694 l -1.56207,2.38402 C 145.12712,119.45493 138,146.08442 138,149.08343 c 0,0.77149 5.86576,0.99214 19.75,0.74292 15.99771,-0.28716 20.31997,-0.66811 22.75,-2.00511 z"
       id="path12" />
  </g>
</svg>
