<?xml version="1.0" encoding="UTF-8"?><svg xmlns="http://www.w3.org/2000/svg" viewBox="0 0 239.37 191.98"><defs><style>.d{fill:none;}.e{fill:#eab520;}</style></defs><g id="a"/><g id="b"><g id="c"><g><path class="e" d="M91.34,191.54c3.51,.01,7.03,.02,10.54,.02,14.14,0,28.28,0,42.42,0-14.14,0-28.28,0-42.42,0-3.51,0-7.03-.01-10.54-.02Z"/><path class="e" d="M231.23,139.44c3.6-1.59,4.41-4.27,2.56-7.85-2.35-4.55-4.92-9.03-7.87-13.2-3.3-4.67-4.86-4.86-9.77-1.82-2.23,1.38-3.74,1.17-6.17,.08-3.93-1.76-5.09-4.1-4.69-8.17,.32-3.28-1.26-5.14-4.26-5.85-6.31-1.48-12.67-1.46-18.99,.02-2.57,.6-3.94,2.35-4.2,4.94-.11,1.15-.15,2.34-.04,3.49,.19,1.87-.33,3.01-2.24,3.8-1.89,.78-3.55,2.12-5.54,3.36-1.49-.9-2.98-1.8-4.48-2.68-2.91-1.7-5.06-1.41-7.32,1.07-3.66,4.03-6.58,8.55-8.52,13.66-2.12,5.59-1.73,6.95,3.5,9.84,2.37,1.31,2.99,2.74,3.17,5.54,.27,4.23-1.06,6.44-4.79,8.12-3.04,1.37-3.69,3.8-2.62,6.9,2.03,5.89,5.21,11.11,9.32,15.77,1.85,2.09,3.63,2.41,6.24,1.22,.9-.41,1.86-.79,2.64-1.39,2.08-1.6,3.71-.91,5.97,.08,3.87,1.69,5.14,4,4.75,8.11-.33,3.48,1.19,4.84,4.58,5.73,5.55,1.47,11.13,1.69,16.77,.54,5.03-1.02,6.33-2.39,6.07-7.61-.14-2.88,.95-4.1,3.35-5.68,3.43-2.25,5.9-1.91,9.04,.19,2.91,1.95,5.12,1.58,7.16-1.28,3.11-4.37,6.1-8.88,8.54-13.65,2.48-4.84,1.61-6.9-3.23-9.43-2.52-1.32-3.46-2.75-3.52-5.84-.07-3.97,.78-6.34,4.58-8.01Zm-10.63,13.47c.02,.71,.51,1.69,1.1,2.06,2.22,1.42,4.57,2.65,7.46,4.28-2.64,4.56-5.18,8.95-7.87,13.61-3.29-1.82-6.09-3.37-8.23-4.55-4.44,2.3-8.53,4.36-12.55,6.55-.49,.27-.85,1.17-.88,1.79-.11,2.07-.11,4.16-.02,6.23,.06,1.47-.22,2.39-1.98,2.36-4.13-.07-8.27,.03-12.39-.14-.57-.02-1.51-1.13-1.57-1.8-.2-2.14,0-4.32-.12-6.48-.04-.69-.43-1.66-.97-1.97-3.86-2.21-7.79-4.28-12.25-6.68-2.2,1.23-4.95,2.77-7.65,4.28-2.99-2.36-6.67-8.5-8.08-13.52,2.19-1.31,4.5-2.58,6.68-4.04,.6-.4,1.14-1.37,1.15-2.08,.08-3.79-.16-7.6,.02-11.39,.07-1.53-.09-2.45-1.51-3.2-2.18-1.15-4.27-2.5-6.94-4.09,2.66-4.58,5.21-8.97,7.89-13.58,3.31,1.84,6.12,3.39,8.24,4.57,4.38-2.29,8.4-4.34,12.34-6.52,.55-.3,1.01-1.24,1.05-1.91,.13-2.24-.05-4.5,.12-6.73,.05-.62,.93-1.65,1.46-1.66,4.29-.14,8.59-.15,12.89,0,.55,.02,1.44,1.17,1.5,1.86,.2,2.14,0,4.32,.12,6.48,.04,.67,.48,1.59,1.03,1.93,3.29,2.03,6.73,3.83,9.98,5.92,1.19,.77,2.01,.99,3.25,.21,2.17-1.37,4.46-2.55,7.32-4.16,2.67,4.54,5.27,8.97,7.99,13.59-3.37,1.92-6.16,3.51-8.64,4.92,0,4.82-.05,9.34,.05,13.86Z"/><g><path class="e" d="M146.26,185.71c-.66-.07-1.33-.02-1.99-.02-12.98,0-25.95,0-38.93,0-15.14,0-30.28,0-45.42,0-4.94,0-6.46-1.52-6.12-6.48,.58-8.4,3.23-16.09,8.41-22.79,9.79-12.65,22.94-18.49,38.71-18.74,10.23-.16,20.46-.03,30.69-.03,.67,0,1.34,.08,1.99-.03,1.69-.27,3.07-.98,3.04-2.98-.03-1.87-1.35-2.53-2.93-2.83-.48-.09-.99-.04-1.49-.04-10.23,0-20.47-.3-30.69,.12-5.83,.24-11.9,.81-17.38,2.67-21.03,7.11-33.28,21.59-36.12,44.03-.97,7.65,4.12,13.18,11.67,13.05,10.54-.18,21.08-.13,31.63-.09,3.51,.01,7.03,.02,10.54,.02,14.14,0,28.28,0,42.42,0,.67,0,1.34,.05,1.99-.03,1.76-.2,3.15-1.11,3.13-2.93-.02-1.82-1.41-2.71-3.17-2.89Z"/><path class="e" d="M192.05,191.98c-3.23,0-6.48-.43-9.72-1.28-3.24-.86-5.32-2.25-4.95-6.26,.37-3.96-.84-6.02-4.46-7.61-2.17-.95-3.61-1.58-5.47-.15-.69,.53-1.49,.89-2.27,1.24l-.47,.21c-2.81,1.29-4.85,.89-6.82-1.34-4.28-4.85-7.45-10.21-9.42-15.93-1.21-3.52-.21-6.12,2.89-7.52,3.58-1.61,4.75-3.61,4.5-7.63-.18-2.83-.84-3.99-2.92-5.14-5.4-2.99-5.96-4.55-3.72-10.46,1.87-4.94,4.77-9.59,8.61-13.82,2.42-2.66,4.8-3.01,7.95-1.17,1.05,.62,2.09,1.25,3.14,1.87l1.08,.65c.52-.33,1.02-.67,1.51-1,1.28-.86,2.5-1.68,3.84-2.23,1.61-.66,2.11-1.52,1.93-3.28-.11-1.07-.1-2.24,.04-3.59,.29-2.88,1.87-4.74,4.58-5.38,6.41-1.49,12.88-1.5,19.21-.01,3.37,.79,4.97,3,4.64,6.38-.39,3.98,.8,6.06,4.4,7.67,2.26,1.01,3.62,1.24,5.7-.05,5.17-3.21,7.03-2.87,10.44,1.95,2.65,3.75,5.24,8.08,7.91,13.26,1.02,1.97,1.27,3.72,.75,5.19-.5,1.41-1.69,2.53-3.56,3.36h0c-3.69,1.62-4.35,3.91-4.28,7.55,.05,2.84,.84,4.15,3.25,5.41,5.2,2.72,6.01,5.08,3.44,10.1-2.66,5.2-5.98,10.06-8.58,13.71-2.19,3.08-4.69,3.53-7.85,1.41-3.21-2.15-5.43-2.2-8.49-.19-2.31,1.52-3.25,2.58-3.12,5.24,.26,5.36-1.07,7.03-6.47,8.12-2.41,.49-4.84,.73-7.28,.73Zm-22.38-17.15c1.21,0,2.39,.52,3.66,1.08,4,1.75,5.46,4.25,5.05,8.62-.28,2.99,.78,4.3,4.21,5.2,5.54,1.46,11.1,1.64,16.54,.53,4.9-1,5.91-2.26,5.68-7.1-.15-3.09,1.09-4.49,3.57-6.12,3.38-2.22,6.07-2.17,9.6,.2,2.68,1.8,4.62,1.45,6.48-1.16,2.58-3.62,5.87-8.44,8.5-13.58,2.3-4.5,1.68-6.3-3.01-8.76-2.74-1.43-3.73-3.07-3.79-6.28-.07-3.88,.72-6.65,4.88-8.48h0c1.6-.7,2.61-1.64,3.01-2.77,.42-1.2,.19-2.68-.7-4.39-2.65-5.13-5.21-9.43-7.84-13.14-3.1-4.38-4.37-4.61-9.1-1.68-2.44,1.52-4.15,1.23-6.64,.11-4.02-1.8-5.42-4.23-4.99-8.68,.28-2.9-.98-4.63-3.87-5.31-6.18-1.45-12.5-1.45-18.76,.02-2.29,.53-3.57,2.05-3.82,4.5-.13,1.28-.14,2.39-.04,3.39,.23,2.2-.53,3.49-2.54,4.31-1.25,.51-2.42,1.3-3.66,2.14-.58,.39-1.17,.79-1.8,1.18l-.26,.16-1.61-.97c-1.04-.63-2.08-1.25-3.13-1.87-2.73-1.6-4.61-1.33-6.7,.98-3.76,4.14-6.59,8.68-8.42,13.5-2.06,5.44-1.69,6.48,3.27,9.23,2.67,1.48,3.25,3.16,3.43,5.95,.28,4.42-1.14,6.83-5.08,8.61-2.63,1.18-3.4,3.24-2.35,6.28,1.93,5.6,5.03,10.84,9.22,15.6,1.69,1.91,3.22,2.21,5.65,1.09l.48-.21c.72-.32,1.47-.66,2.07-1.11,1-.77,1.92-1.05,2.82-1.05Z"/><path class="e" d="M74.61,110.71c-.04-1.88-1.79-2.9-5-2.9-19.79,0-39.58,0-59.37,0-3.6,0-4.53-.99-4.39-4.64,.52-14.26,11.92-25.45,26.13-25.39,11.04,.04,22.08,.36,33.12,.6,1.83,.04,3.21-.58,3.53-2.4,.35-2.01-.91-3.13-2.79-3.41-2.13-.32-4.28-.66-6.43-.67-9.15-.07-18.29-.1-27.44,0-5.72,.06-11.22,1.28-16.17,4.3C6.13,82.08,1.37,90.93,.12,101.99c-.84,7.4,2.79,11.7,10.21,11.7,9.81,0,19.62,0,29.43,0s19.96,0,29.93,0c3.17,0,4.96-1.09,4.92-2.98Z"/><path class="e" d="M239.32,100.64c-.1-.66-.25-1.3-.36-1.96-2.25-13.86-13.2-24.8-27.11-26.31-5.99-.65-12.11-.11-18.16-.11v-.64c-6.56,.27-13.12,.46-19.66,.86-2.38,.15-3.74,1.77-3.32,3.49,.51,2.09,2.07,2.59,4.03,2.37,2.14-.24,4.29-.55,6.44-.56,8.89-.06,17.79-.14,26.68,0,10.21,.17,17.75,5.1,22.54,13.92,1.62,2.98,2.23,6.55,3.09,9.9,.48,1.89,1.43,3.03,3.35,2.95,1.76-.08,2.78-1.85,2.48-3.92Z"/><path class="e" d="M119.65,119.54c23.7,.05,38.54-18.44,38.4-38.94-.15-21.36-15.75-38.47-38.35-38.53-23.76-.06-38.44,18.56-38.44,39.2,.04,21.29,15.49,38.22,38.4,38.27Zm.27-71.73c17.96,.13,32.79,15.08,32.76,33.06-.03,18.07-15.04,33-33.12,32.94-18.07-.06-32.98-15.1-32.88-33.18,.09-18.07,15.16-32.94,33.25-32.82Z"/></g><path class="e" d="M146.26,185.71c-.66-.07-1.33-.02-1.99-.02-12.98,0-25.95,0-38.93,0-15.14,0-30.28,0-45.42,0-4.94,0-6.46-1.52-6.12-6.48,.58-8.4,3.23-16.09,8.41-22.79,9.79-12.65,22.94-18.49,38.71-18.74,10.23-.16,20.46-.03,30.69-.03,.67,0,1.34,.08,1.99-.03,1.69-.27,3.07-.98,3.04-2.98-.03-1.87-1.35-2.53-2.93-2.83-.48-.09-.99-.04-1.49-.04-10.23,0-20.47-.3-30.69,.12-5.83,.24-11.9,.81-17.38,2.67-21.03,7.11-33.28,21.59-36.12,44.03-.97,7.65,4.12,13.18,11.67,13.05,10.54-.18,21.08-.13,31.63-.09,3.51,.01,7.03,.02,10.54,.02,14.14,0,28.28,0,42.42,0,.67,0,1.34,.05,1.99-.03,1.76-.2,3.15-1.11,3.13-2.93-.02-1.82-1.41-2.71-3.17-2.89Z"/><path class="e" d="M48.07,0C31.56,.52,18.41,11.09,18.07,29.49c-.31,16.53,10.91,29.87,29.45,30.12,16.87,.23,29.84-11.34,30.01-29.57,.15-16.84-11.37-29.09-29.45-30.04Zm-.49,53.9c-13.01-.09-23.92-11.2-23.81-24.22,.12-13.03,11.17-23.9,24.22-23.81,13,.09,23.9,11.17,23.81,24.22-.09,13.01-11.17,23.9-24.22,23.81Z"/><path class="e" d="M191.55,.16c-17.79,.02-29.55,12.55-29.78,29.88-.22,16.68,13.27,29.77,29.83,29.74,16.58-.04,30.05-13.14,29.78-29.79-.28-17.45-12.16-29.85-29.83-29.83Zm-.14,53.74c-13.02-.07-23.95-11.16-23.85-24.18,.1-13.04,11.13-23.92,24.18-23.84,13.01,.07,23.92,11.14,23.85,24.18-.07,13.01-11.13,23.92-24.18,23.84Z"/><path class="e" d="M74.61,110.71c-.04-1.88-1.79-2.9-5-2.9-19.79,0-39.58,0-59.37,0-3.6,0-4.53-.99-4.39-4.64,.52-14.26,11.92-25.45,26.13-25.39,11.04,.04,22.08,.36,33.12,.6,1.83,.04,3.21-.58,3.53-2.4,.35-2.01-.91-3.13-2.79-3.41-2.13-.32-4.28-.66-6.43-.67-9.15-.07-18.29-.1-27.44,0-5.72,.06-11.22,1.28-16.17,4.3C6.13,82.08,1.37,90.93,.12,101.99c-.84,7.4,2.79,11.7,10.21,11.7,9.81,0,19.62,0,29.43,0s19.96,0,29.93,0c3.17,0,4.96-1.09,4.92-2.98Z"/><path class="e" d="M238.96,98.68c-2.25-13.86-13.2-24.8-27.11-26.31-5.99-.65-12.11-.11-18.16-.11v-.64c-6.56,.27-13.12,.46-19.66,.86-2.38,.15-3.74,1.77-3.32,3.49,.51,2.09,2.07,2.59,4.03,2.37,2.14-.24,4.29-.55,6.44-.56,8.89-.06,17.79-.14,26.68,0,10.21,.17,17.75,5.1,22.54,13.92,1.62,2.98,2.23,6.55,3.09,9.9,.48,1.89,1.43,3.03,3.35,2.95,1.76-.08,2.78-1.85,2.48-3.92-.1-.66-.25-1.3-.36-1.96Z"/><path class="d" d="M191.55,164.39c-10.75-.04-17.7-7.18-17.67-17.72,.03-10.76,7.19-16.97,17.72-17.87,10.69,.95,17.72,7.32,17.67,17.92-.05,10.98-7.38,17.71-17.71,17.67Z"/><path class="e" d="M191.6,128.8c-10.53,.91-17.69,7.12-17.72,17.87-.03,10.54,6.92,17.67,17.67,17.72,10.33,.04,17.66-6.69,17.71-17.67,.05-10.6-6.98-16.97-17.67-17.92Zm-.09,29.93c-7.05-.02-12-5.06-11.96-12.16,.04-6.93,5.02-11.88,11.98-11.9,7.08-.02,12.09,4.98,12.09,12.04,0,7.06-5.02,12.04-12.1,12.02Z"/></g></g></g></svg>