<?xml version="1.0" encoding="UTF-8"?><svg xmlns="http://www.w3.org/2000/svg" viewBox="0 0 239.55 149.67"><defs><style>.d{fill:#bf262e;}</style></defs><g id="a"/><g id="b"><g id="c"><g><path class="d" d="M171.89,94.3c-14.59-11.85-29.19-23.68-43.8-35.5-2.16-1.75-4.14-1.81-5.24-.16-1.34,2.01-.14,3.47,1.36,4.69,14.25,11.59,28.52,23.14,42.77,34.73,4.45,3.62,8.93,7.19,13.19,11.02,2.66,2.4,3.27,5.74,1.66,8.9-1.38,2.7-3.18,5.32-5.33,7.44-4.13,4.09-8.96,3.95-13.34,.11-.97-.85-1.94-1.7-2.97-2.6-4.57,5.53-8.88,10.8-13.26,16.03-4.89,5.83-11.23,6.42-17.07,1.64-2.61-2.14-5.21-4.29-8.05-6.63-.91,1.03-1.64,1.95-2.46,2.77-9.25,9.27-21.18,9.53-30.89,.73-10.11-9.16-20.28-18.24-30.33-27.47-1.79-1.64-3.54-2.35-5.96-2.24-4.37,.19-8.76,.05-13.23,.05V29.41c1.42,0,2.59-.13,3.72,.02,4.61,.64,8.08-1.03,11.54-4.19,8.72-7.94,18.86-13.68,30.43-16.29,6.68-1.5,13.58-2.09,20.38-3.02,1.89-.26,3.5-.83,3.65-2.99,.12-1.63-1.84-3.06-3.98-2.86-5.29,.5-10.63,.79-15.83,1.78-15.29,2.91-28.68,9.73-40.31,20.11-1.05,.93-2.76,1.55-4.17,1.57-13.31,.23-26.62,.3-39.93,.42C1.13,23.99,.02,24.98,.01,28.18c-.02,31.1-.02,62.21,0,93.31,0,3.01,1.23,4.18,4.29,4.19,6.24,.03,12.48,.09,18.72-.02,4.64-.08,8.96-1.33,11.88-5.23,1.46-1.94,2.34-4.31,3.61-6.72,3.9,0,8.05,.12,12.2-.05,2.09-.08,3.57,.6,5.08,1.97,10.04,9.11,20.11,18.19,30.24,27.19,9.2,8.17,22.34,9.07,32.53,2.31,1.49-.99,2.84-2.2,4.31-3.35,.89,.82,1.62,1.5,2.34,2.17,8.79,8.24,18.96,7.5,26.57-1.86,2.98-3.66,6.08-7.22,9.1-10.79,6.72,3.89,12.04,4.08,17.38,.2,2.32-1.69,4.2-4,6.16-6.15,5.46-5.99,5.25-15.67-.67-21.18-3.76-3.51-7.87-6.65-11.87-9.89ZM32.95,32.61c0,25.52,0,51.03,0,76.55,0,7.08-3.51,10.61-10.53,10.62-5.39,.01-10.78,0-16.44,0V30.05h26.97v2.56Z"/><path class="d" d="M234.56,23.97c-13.14,0-26.29,.05-39.43-.07-1.41-.01-3.13-.62-4.16-1.55C174.16,7.11,154.33,0,131.79,0c-4.31,0-8.25,1.1-11.47,4.05-12.27,11.23-24.56,22.43-36.72,33.78-4.68,4.36-6.59,9.93-5.35,16.3,2.38,12.24,18.35,20.02,29.61,9.71,9.63-8.81,19.38-17.5,29.07-26.26,1.96-1.77,2.29-3.49,1.07-4.95-1.19-1.42-2.95-1.27-4.97,.56-9.73,8.83-19.42,17.68-29.14,26.52-2.6,2.36-5.73,3.45-9.16,2.92-5.21-.8-8.8-3.83-10.39-8.88-1.49-4.74,.28-8.74,3.7-11.93,11.92-11.11,23.9-22.17,36-33.09,1.56-1.41,3.91-2.63,5.94-2.7,10.96-.38,21.68,1.07,31.99,5.08,9.91,3.86,18.58,9.57,26.26,16.85,1.42,1.35,2.88,2.03,4.88,1.91,2.46-.15,4.93-.04,7.49-.04V107.87c-1.42,0-2.79-.34-3.84,.1-1.04,.44-2.36,1.62-2.42,2.56-.06,.94,1.1,2.22,2.05,2.89,.7,.49,1.94,.39,2.9,.26,1.76-.23,2.42,.54,2.93,2.14,1.72,5.38,5.39,8.95,11.07,9.37,7.11,.52,14.28,.4,21.42,.49,3.81,.05,4.84-1.04,4.84-4.9,0-30.6,0-61.2,0-91.81,0-3.99-1.02-5.01-4.99-5.01Zm-.99,95.83c-1.67,0-3.29,0-4.92,0-3.99,0-7.98,.03-11.97,0-6.41-.05-10.06-3.68-10.07-10.08-.03-20.53,0-41.06,0-61.59V30.03h26.97V119.79Z"/></g></g></g></svg>