<?xml version="1.0" encoding="UTF-8"?><svg xmlns="http://www.w3.org/2000/svg" viewBox="0 0 239.15 191.27"><defs><style>.d{fill:#bf262e;}</style></defs><g id="a"/><g id="b"><g id="c"><g><path class="d" d="M157.43,12.4C136.91-1.89,114.67-3.73,92.17,6.36c-21.27,9.54-33.99,26.55-37.78,49.8-3.04,18.65,1.46,35.47,12.95,50.34,6,7.77,12.15,15.4,16.28,24.39,1.59,3.46,2.73,7.13,4.39,10.55,.49,1.02,2.06,2.16,3.11,2.13,1.76-.05,2.56-1.66,2.4-3.45-.06-.73-.33-1.45-.58-2.15-4.13-11.46-10.31-21.81-18-31.13-9.77-11.84-15.62-24.97-16.05-40.49,.69-4.67,1.07-9.41,2.12-14C68.31,20.48,99.22,1.11,131.3,7.27c24.33,4.67,43.51,24.69,47.59,49.15,2.89,17.34-1.22,33-12.07,46.77-8.63,10.96-16.34,22.4-20.88,35.73-.86,2.52-.32,4.17,1.61,4.69,2.34,.63,3.32-.83,3.94-2.76,3.76-11.82,10.2-22.08,18.08-31.57,13.6-16.38,18.79-35.08,14.66-56.06-3.38-17.17-12.49-30.86-26.8-40.82Z"/><path class="d" d="M140.61,155.44c-10.72,.11-21.44,.03-32.15,.04-4.07,0-8.14-.06-12.21,.02-4.36,.09-6.44,2.08-6.57,6.42-.1,3.07-.12,6.17,.23,9.2,.22,1.91,.92,3.9,1.91,5.55,1.87,3.13,4.07,6.06,6.2,9.03,2.01,2.81,4.66,4.94,8.15,5.16,4.46,.29,8.95,.07,13.42,.07v.32c3.57,0,7.15,.04,10.72-.01,4.2-.07,7.95-1.51,10.49-4.85,4.98-6.57,9.29-13.23,8.75-22.32-.41-6.83-4.01-8.67-8.92-8.62Zm-.94,22.45c-5.9,8.43-5.13,7.96-14.82,7.92-5.32-.02-10.63-.05-15.95,.01-2.85,.03-4.94-1.17-6.47-3.47-1.88-2.83-3.71-5.7-5.58-8.54-2.42-3.66-1.07-7.73-1.46-11.84h47.91c.82,5.9-.17,10.97-3.63,15.91Z"/><path class="d" d="M122.2,27.45c-.11-1.07-1.18-2.13-2.02-2.99-.36-.37-1.25-.3-1.9-.29-23.25,.51-42.13,18.8-43.39,42-.04,.75-.13,1.49-.1,2.24,.06,1.74,1,2.91,2.73,2.96,1.7,.05,2.75-.99,2.92-2.76,.11-1.16,.24-2.31,.35-3.47,1.22-13.28,7.8-23.22,19.03-30.14,6-3.7,12.7-5.2,19.69-5.41,1.57-.05,2.86-.61,2.7-2.14Z"/><path class="d" d="M35.53,59.96c.75,0,1.49,.03,2.24,0,1.9-.09,3.61-.69,3.64-2.88,.03-2.17-1.63-2.87-3.55-3-.58-.04-1.16,0-1.74,0-8.96,0-17.92,0-26.88,0-2.07,0-4.16-.12-6.22,.06C1.33,54.27-.04,55.12,0,57.1c.04,1.83,1.33,2.54,2.93,2.82,.57,.1,1.16,.04,1.74,.04,5.31,0,10.62,0,15.93,0,4.98,0,9.96,0,14.93,0Z"/><path class="d" d="M237.71,54.74c-.88-.49-2.05-.64-3.09-.65-5.39-.06-10.79-.03-16.18-.03-5.48,0-10.95-.02-16.43,.02-.89,0-1.96,.01-2.61,.48-.77,.55-1.7,1.64-1.64,2.43,.07,.92,1.02,1.89,1.82,2.57,.48,.41,1.41,.38,2.14,.39,11.12,.02,22.24,.02,33.35,0,.8,0,1.67-.15,2.39-.48,2.11-.98,2.27-3.59,.24-4.72Z"/><path class="d" d="M42.77,93.23c-9.57,4.77-19.16,9.52-28.68,14.38-1.04,.53-1.71,1.77-2.13,2.22-.08,3.28,2.06,4.63,4.47,3.44,9.75-4.79,19.46-9.67,29.17-14.54,1.74-.87,2.44-2.34,1.57-4.13-.91-1.86-2.5-2.32-4.39-1.38Z"/><path class="d" d="M196.28,20.42c9.63-4.81,19.28-9.6,28.87-14.49,.96-.49,1.58-1.64,2-2.1-.05-2.84-1.92-4.12-4-3.26-2.29,.94-4.49,2.1-6.71,3.21-7.55,3.77-15.11,7.53-22.64,11.35-2.09,1.06-2.82,2.86-1.86,4.43,1.1,1.79,2.69,1.68,4.34,.86Z"/><path class="d" d="M14.87,6.48c8.97,4.5,17.95,8.99,26.94,13.47,.74,.37,1.5,.76,2.29,.95,1.78,.42,3.32-.87,3.4-3.59-.59-.53-1.46-1.73-2.64-2.33C35.7,10.3,26.47,5.73,17.26,1.13c-.59-.3-1.29-.83-1.82-.71-1.11,.24-2.64,.57-3.08,1.37-.44,.81,.02,2.32,.49,3.34,.29,.63,1.29,.98,2.02,1.35Z"/><path class="d" d="M224.96,107.62c-9.79-4.89-19.63-9.67-29.47-14.45-1.9-.92-3.44-.02-3.8,2.06-.33,1.88,.81,2.67,2.25,3.38,9.35,4.65,18.69,9.34,28.05,14,.66,.33,1.37,.65,2.09,.73,1.98,.22,2.81-.99,3.28-3.36-.64-.65-1.35-1.84-2.39-2.35Z"/></g></g></g></svg>