<?xml version="1.0" encoding="UTF-8"?><svg xmlns="http://www.w3.org/2000/svg" viewBox="0 0 191.44 191.42"><defs><style>.d{fill:#eab520;}</style></defs><g id="a"/><g id="b"><g id="c"><g><path class="d" d="M177.78,66.95c-3.12-2.52-4.9-4.65-3.52-8.66,.36-1.04,.05-2.31,.05-3.47,.18-22.87-20.38-40.63-43.33-37.29-2.6,.38-3.79-.33-5.19-2.31C116.74,2.45,99.24-3.11,84.36,1.74c-8.13,2.65-14.49,7.56-19.44,14.42-.74,1.02-1.3,1.99-2.94,1.63-8.82-1.93-17.12-.24-25.03,3.83-13.99,7.2-22.27,24.13-19.28,39.54,.35,1.8-.13,2.85-1.65,3.91-6.35,4.45-11.12,10.26-13.67,17.61-5.84,16.79-.57,33.35,13.86,43.83,1.47,1.07,1.6,2.14,1.49,3.76-.26,3.86-.8,7.83-.25,11.61,3,20.86,22.25,35.14,43.06,32.03,2.46-.37,3.64,.2,5.04,2.13,14.84,20.59,45.77,20.47,60.54-.21,1.25-1.76,2.42-2.68,4.65-1.91,1.15,.4,2.45,.4,3.69,.46,24.68,1.05,43.23-20.39,39.48-43.66-.29-1.79-.3-3.1,1.53-4.37,20.45-14.15,21.42-44.04,2.36-59.4Zm-11.14,58.12c4.06,12.61,2.17,24.6-7.34,34.11-9.43,9.42-21.25,11.68-34.15,7.39-6.51,11.51-15.8,18.91-29.43,18.9-13.55,0-22.81-7.29-29.3-18.74-2.86,.59-5.74,1.54-8.67,1.72-16.21,1.02-31.68-8.55-34.6-27.73-.72-4.73-.08-9.27,1.21-13.75,.42-1.45,.27-2.09-1.13-2.91-10.65-6.21-17-15.35-17.27-27.84-.27-12.65,5.79-22.05,16.56-28.38,2.01-1.18,2.18-2.21,1.66-4.25-3.42-13.62,.06-25.3,11.1-34,8.25-6.5,17.91-8.36,28.23-5.51,.95,.26,1.9,.5,2.82,.74,12.92-25.44,45.36-26.06,58.8-.11,26.19-9.01,50.75,14.97,41.57,41.73,11.51,6.27,18.77,15.46,18.75,29.07-.02,13.54-7.05,22.89-18.8,29.56Z"/><path class="d" d="M111.98,99.03c-4.85-3.17-10.11-5.22-15.65-6.84-4.18-1.22-8.26-2.94-12.22-4.79-8.3-3.88-5.28-13.26,.08-16.05,5.84-3.05,11.93-3.06,18.18-1.91,2.77,.51,5.54,1.02,8.33,1.4,1.53,.21,3.16-.37,3.11-2.03-.04-1.11-1.28-2.22-2.08-3.25-.2-.25-.77-.21-1.18-.29-3.79-.75-7.59-1.5-11.55-2.28,0-2.1,.02-4.17,0-6.23-.04-2.45-1.16-4.01-2.92-3.86-2.32,.2-2.92,1.89-2.96,3.89-.04,1.98,0,3.95,0,5.36-4.12,1.51-7.98,2.57-11.51,4.28-5.34,2.59-8.15,7.12-8.47,13.11-.33,6.23,2.75,10.45,8.07,13.13,3.09,1.55,6.35,2.83,9.6,4.01,5.36,1.95,10.86,3.55,16.16,5.64,3.76,1.48,5.81,4.61,6.06,8.69,.27,4.38-1.98,7.45-5.63,9.51-4.81,2.72-10.13,2.77-15.28,1.78-5.09-.98-10.02-2.82-15-4.35-1.72-.53-3.1-.04-3.8,1.43-.77,1.61,.24,2.87,1.61,3.73,.55,.35,1.2,.57,1.83,.77,5.34,1.66,10.69,3.29,16.34,5.03,0,1.72-.06,3.87,.02,6.02,.07,1.91,.78,3.6,2.96,3.59,2.17,0,2.9-1.62,2.91-3.59,.01-1.99,0-3.98,0-5.79,3.89-1.2,7.56-1.99,10.95-3.45,6.12-2.64,8.3-8.1,8.83-14.25,.47-5.5-2.28-9.45-6.8-12.4Z"/></g></g></g></svg>