<?xml version="1.0" encoding="UTF-8"?><svg xmlns="http://www.w3.org/2000/svg" viewBox="0 0 215.59 167.59"><defs><style>.d{fill:#084a7a;}</style></defs><g id="a"/><g id="b"><g id="c"><g><path class="d" d="M53.92,137.72c0,4.07,.05,8.14-.01,12.21,.06-4.07,.01-8.14,.01-12.21,0-4.07,.05-8.14-.01-12.21,.06,4.07,.01,8.14,.01,12.21Z"/><path class="d" d="M161.62,137.63c0-4.07-.05-8.14,.01-12.21-.06,4.07-.01,8.14-.01,12.21,0,4.07-.04,8.14,0,12.21-.05-4.07,0-8.14,0-12.21Z"/><path class="d" d="M215.44,126.9c-.11-2.92-.73-5.98-1.87-8.66-3.14-7.38-9.47-10.03-17.01-10.41-2.62-.13-5.25-.02-7.98-.02,0-3.63,0-6.86,0-10.1,0-10.71-6.15-16.84-16.87-16.84-19.3,0-38.59,0-57.89,0h-2.94v-21.06c2.72,0,5.28,.03,7.85,0,11.16-.16,18.8-7.73,18.93-18.85,.09-7.31,.07-14.63,0-21.95-.11-11.1-7.75-18.79-18.85-18.93-7.4-.1-14.81-.12-22.21,0-10.89,.19-18.52,7.77-18.69,18.57-.12,7.48-.11,14.96,0,22.44,.14,10.07,6.05,16.85,16.11,18.33,3.49,.51,7.07,.4,10.67,.57v20.87h-3.09c-19.46,0-38.92,.02-58.39-.01-4.43,0-8.3,1.14-11.55,4.34-3.22,3.17-4.69,6.96-4.69,11.4,0,3.7,0,7.4,0,11.21-2.81,0-5.21-.01-7.62,0C7.81,107.88,.08,115.55,.03,127.03c-.04,7.07-.03,14.13,0,21.2,.05,11.57,7.68,19.25,19.21,19.32,7.15,.04,14.31,.05,21.46,0,11.4-.09,19.03-7.76,19.1-19.18,.04-7.15,.2-14.31-.08-21.44-.12-2.99-.78-6.14-1.97-8.89-3.15-7.26-9.45-9.83-16.88-10.21-2.62-.13-5.25-.02-8-.02,0-3.86,0-7.34,0-10.82,.02-6.72,3.57-10.23,10.36-10.24,19.63,0,39.26,0,58.89,0h2.73v21.06c-2.9,0-5.39-.02-7.88,0-11.35,.13-19.02,7.86-19.07,19.23-.03,7.07-.03,14.13,0,21.2,.05,11.56,7.69,19.25,19.22,19.31,7.15,.04,14.31,.05,21.46,0,11.4-.09,19.02-7.77,19.09-19.19,.04-7.15,.18-14.3-.08-21.44-.11-2.92-.73-5.98-1.87-8.66-3.13-7.38-9.46-10.04-17-10.42-2.62-.13-5.25-.02-7.8-.02v-20.92c.43-.06,.68-.12,.92-.12,20.63,0,41.25-.04,61.88,.01,4.72,.01,8.39,3.15,8.81,7.86,.37,4.27,.08,8.59,.08,13.17-2.89,0-5.47-.04-8.04,0-11.09,.22-18.72,7.91-18.8,18.99-.05,7.23-.06,14.46,0,21.7,.09,11.27,7.71,18.93,18.98,19.04,7.24,.07,14.47,.06,21.71,0,11.39-.09,19.01-7.77,19.08-19.2,.04-7.15,.18-14.3-.08-21.44Zm-173.09-13.18c6.75,.09,11.47,4.98,11.56,11.79,.06,4.07,.01,8.14,.01,12.21,0,4.07,.05,8.14-.01,12.21-.1,6.77-4.85,11.63-11.63,11.72-8.23,.11-16.46,.1-24.68,0-6.81-.08-11.61-4.91-11.67-11.66-.08-8.22-.07-16.45,0-24.67,.06-6.61,4.85-11.49,11.49-11.59,8.31-.12,16.62-.12,24.93,0Zm52.69-59.85c-6.49-.12-11.15-5.03-11.26-11.56-.07-4.15-.01-8.31-.01-12.46,0-4.07-.05-8.14,0-12.21,.1-6.65,4.8-11.56,11.42-11.66,8.39-.13,16.79-.13,25.18,0,6.5,.1,11.3,4.97,11.37,11.45,.1,8.3,.09,16.61,0,24.92-.06,6.51-4.79,11.41-11.29,11.52-8.47,.15-16.95,.15-25.43,0Zm25.25,59.86c6.63,.1,11.4,4.97,11.47,11.61,.08,8.22,.08,16.45,0,24.67-.06,6.64-4.82,11.53-11.45,11.63-8.39,.13-16.79,.14-25.18,0-6.51-.11-11.22-4.98-11.34-11.47-.08-4.15-.01-8.31-.02-12.46,0-4.07-.05-8.14,0-12.21,.09-6.78,4.82-11.67,11.58-11.76,8.31-.11,16.62-.12,24.93,0Zm89.33,36.34c-.07,6.62-4.86,11.47-11.51,11.57-8.31,.12-16.62,.12-24.93,0-6.75-.1-11.45-4.99-11.54-11.8-.05-4.07,0-8.14,0-12.21,0-4.07-.04-8.14,.01-12.21,.09-6.75,4.86-11.62,11.64-11.7,8.23-.1,16.46-.1,24.68,0,6.79,.08,11.59,4.93,11.66,11.69,.08,8.22,.08,16.45,0,24.67Z"/><path class="d" d="M83.77,137.7c0-4.07-.05-8.14,0-12.21-.05,4.07,0,8.14,0,12.21,0,4.15-.06,8.31,.02,12.46-.08-4.15-.01-8.31-.01-12.46Z"/></g></g></g></svg>