<?xml version="1.0" encoding="UTF-8"?><svg xmlns="http://www.w3.org/2000/svg" viewBox="0 0 143.63 191.61"><defs><style>.d{fill:none;}.e{fill:#084a7a;}</style></defs><g id="a"/><g id="b"><g id="c"><g><path class="d" d="M0,95.82C0,119.11-.02,142.41,.05,165.7c0,2.47,.24,5.02,.89,7.38,3.22,11.74,12.28,18.51,24.6,18.51,30.85,.02,61.7,.02,92.55-.03,2.3,0,4.67-.26,6.89-.85,11.67-3.07,18.6-12.23,18.6-24.55,.02-33.11-.02-66.22,.05-99.34,0-4.7-1.52-8.44-4.88-11.77-16.83-16.69-33.6-33.45-50.27-50.3C85.2,1.45,81.52-.02,76.93,0c-15.55,.07-31.1,0-46.65,.05-3.23,.01-6.49,.06-9.69,.51-5.68,.79-10.5,3.31-14.37,7.7C1.74,13.34,.03,19.35,.02,25.93-.02,49.23,0,72.52,0,95.82Z"/><path class="e" d="M0,95.82C0,72.52-.02,49.23,.02,25.93c.01-6.58,1.72-12.59,6.2-17.68C10.09,3.87,14.91,1.35,20.59,.56,23.78,.11,27.05,.06,30.28,.05,45.83,0,61.38,.08,76.93,0c4.59-.02,8.27,1.45,11.56,4.77,16.68,16.85,33.44,33.61,50.27,50.3,3.36,3.33,4.89,7.07,4.88,11.77-.07,33.11-.02,66.22-.05,99.34,0,12.32-6.93,21.48-18.6,24.55-2.22,.58-4.59,.84-6.89,.85-30.85,.05-61.7,.05-92.55,.03-12.32,0-21.38-6.77-24.6-18.51-.65-2.37-.88-4.92-.89-7.38C-.02,142.41,0,119.11,0,95.82ZM77.84,5.91h-2.69c-16.63,0-33.26-.01-49.89,0-11.7,.01-19.37,7.68-19.37,19.38-.01,47,0,94,0,141,0,11.74,7.63,19.42,19.32,19.42,31.02,.01,62.03,.01,93.05,0,11.87,0,19.46-7.62,19.46-19.52,0-32.53,0-65.05,0-97.58v-2.81h-3.05c-13.22,0-26.45-.31-39.66,.1-9.96,.31-17.56-6.95-17.26-17.16,.4-14.13,.1-28.28,.1-42.85Zm55.94,53.99c-16.63-16.64-33.47-33.48-50.04-50.06,0,13.34-.1,27.3,.06,41.26,.05,4.74,2.85,7.57,7.53,8.59,.4,.09,.82,.21,1.22,.21,13.95,.01,27.91,0,41.23,0Z"/><path class="e" d="M47.22,118.18c-.63,2.12-1.26,4.24-1.88,6.36-1.84,6.38-3.66,12.76-5.51,19.14-1.42,4.91-2.88,5.99-7.99,5.99-2.16,0-4.32,.02-6.48,0-2.56-.02-4.21-1.14-4.28-2.87-.08-1.77,1.68-2.98,4.39-3.01,1.99-.02,4-.12,5.98,.03,1.82,.14,2.62-.52,3.12-2.31,2.36-8.39,4.84-16.74,7.36-25.09,.45-1.49,1.04-3.02,1.92-4.28,1.87-2.67,5.54-2.73,7.39-.05,1.11,1.6,2.01,3.47,2.49,5.36,2.31,9,4.44,18.05,6.76,27.62,1.5-3.44,2.64-6.51,4.16-9.38,1.54-2.91,3.07-6.01,5.3-8.35,5.44-5.7,13.87-4.65,18.68,2.1,2.02,2.84,3.77,5.87,5.52,8.89,2.17,3.74,4.98,5.9,9.67,5.54,4.79-.36,9.64-.1,14.46-.07,2.54,.01,4.24,1.21,4.24,2.91,0,1.73-1.67,2.95-4.19,2.96-5.49,.02-10.97,.01-16.46,0-4.59,0-8.2-2.02-10.81-5.66-2.03-2.83-3.69-5.92-5.6-8.84-1.78-2.74-3.61-5.61-7.45-5.38-3.84,.23-5.73,3-7.12,6.16-1.77,4.03-3.34,8.15-5.21,12.13-1.83,3.9-5.73,5.04-8.47,2.42-1.17-1.11-1.87-2.93-2.31-4.55-2.26-8.41-4.37-16.86-6.53-25.3-.21-.8-.44-1.59-.66-2.39l-.5-.08Z"/><path class="e" d="M41.81,29.87c-4.49,0-8.97,.03-13.46-.02-.89,0-1.97-.05-2.6-.54-.76-.59-1.54-1.67-1.56-2.56-.02-.75,.91-1.7,1.65-2.23,.61-.43,1.57-.5,2.37-.5,9.14-.03,18.27-.02,27.41-.02,.25,0,.5-.02,.75,.02,1.72,.23,3.21,1.02,3.21,2.85,0,1.94-1.45,2.89-3.33,2.99-1.49,.08-2.99,.02-4.48,.02-3.32,0-6.65,0-9.97,0Z"/><path class="e" d="M41.81,53.83c-4.49,0-8.97,.03-13.46-.02-.89,0-1.97-.05-2.6-.54-.76-.59-1.54-1.67-1.56-2.56-.02-.75,.91-1.7,1.65-2.23,.61-.43,1.57-.5,2.37-.5,9.14-.03,18.27-.02,27.41-.02,.25,0,.5-.02,.75,.02,1.72,.23,3.21,1.02,3.22,2.85,0,1.94-1.45,2.89-3.33,2.99-1.49,.08-2.99,.02-4.48,.02-3.32,0-6.65,0-9.97,0Z"/></g></g></g></svg>