<?xml version="1.0" encoding="UTF-8" standalone="no"?>
<!-- Created with Inkscape (http://www.inkscape.org/) -->

<svg
   version="1.1"
   id="svg2"
   width="145.72739"
   height="231.20717"
   viewBox="0 0 145.72739 231.20717"
   xmlns="http://www.w3.org/2000/svg"
   xmlns:svg="http://www.w3.org/2000/svg">
  <defs
     id="defs6" />
  <g
     id="g8"
     transform="translate(-79.871647,-18.342514)">
    <path
       style="fill:#c0262e"
       d="m 118.76428,249.27349 c -31.16667,-0.48698 -32.000003,-0.55208 -32.000003,-2.5 0,-1.94566 0.833333,-2.01358 30.671973,-2.5 l 30.67197,-0.5 -31.068,-60.5 C 99.952822,149.99849 84.924473,119.72699 83.643889,116.00348 76.828825,96.187592 79.363072,72.628677 90.314134,53.995441 96.631127,43.247075 108.85516,31.673027 119.36441,26.489838 c 14.6003,-7.200906 29.63867,-9.649516 44.601,-7.26212 44.97289,7.175899 72.29308,53.129218 57.67084,97.003992 -1.3824,4.14798 -16.38194,34.54178 -33.3323,67.54178 l -30.81883,60 30.62648,0.5 c 28.16347,0.45979 30.6536,0.64098 30.96349,2.25302 0.18535,0.96417 -0.25875,1.96635 -0.9869,2.22708 -2.08419,0.74629 -64.0699,1.07074 -99.32391,0.5199 z m 65.49321,-69.3327 c 16.60021,-32.35798 31.30951,-62.05798 32.68733,-66 3.3604,-9.61419 4.26548,-27.032888 1.92183,-36.986353 -5.85406,-24.862162 -25.09981,-44.744384 -49.60237,-51.242756 -8.52173,-2.260063 -23.35733,-2.288295 -32.5,-0.06185 -24.37442,5.935727 -44.211643,26.205258 -50.060345,51.151289 -2.288358,9.760362 -1.57317,27.57724 1.458809,36.34208 1.211894,3.50335 15.170716,31.62835 31.019596,62.5 15.84889,30.87166 29.81242,58.09633 31.03007,60.49927 1.21765,2.40294 2.58494,3.97794 3.03841,3.5 0.45347,-0.47794 14.40647,-27.34369 31.00667,-59.70168 z m -40.06604,-30.69347 c -23.06869,-3.55021 -41.70323,-20.19627 -48.401144,-43.2363 -1.955843,-6.727858 -2.211202,-22.012988 -0.488453,-29.237528 0.655759,-2.75 2.75021,-8.224093 4.654336,-12.164651 12.617781,-26.112298 43.991461,-39.161404 71.352261,-29.677207 24.78886,8.592673 40.08602,29.841312 40.20563,55.847938 0.0464,10.081218 -1.51354,16.935518 -5.94393,26.118008 -10.70642,22.19025 -37.07819,36.08953 -61.3787,32.34974 z m 23.71749,-7.07437 c 9.39276,-2.87802 17.02617,-7.72371 24.12998,-15.31771 19.16825,-20.49091 19.19901,-51.639703 0.0712,-72.087394 -11.19207,-11.964352 -23.75498,-17.50536 -39.63394,-17.480976 -21.96422,0.03373 -41.04555,13.120633 -50.0326,34.314778 -2.34703,5.535003 -2.619761,7.461654 -2.643082,18.671844 -0.02196,10.555328 0.323002,13.427348 2.217312,18.460868 4.11558,10.93576 12.53906,21.30469 22.50615,27.70408 11.86521,7.61808 29.59119,9.96106 43.38498,5.73451 z m -33.14466,-7.85414 c -1.1,-0.44509 -2.85074,-1.75519 -3.89053,-2.91132 -1.7839,-1.98348 -1.84954,-3.37401 -1.16381,-24.65143 l 0.72672,-22.549368 -3.58619,-3.96948 -3.58619,-3.969482 V 64.470611 c 0,-11.839549 0.74428,-14.616215 3.62186,-13.511985 1.05856,0.406211 1.37814,3.154233 1.37814,11.850653 v 11.321809 l 3.62418,3.821204 3.62419,3.8212 -0.37419,23.480378 c -0.35609,22.34504 -0.28327,23.49818 1.50599,23.84839 1.0341,0.20241 2.21049,-0.16644 2.6142,-0.81966 0.40371,-0.65322 0.50612,-11.48216 0.22758,-24.0643 l -0.50644,-22.876628 3.39224,-3.16624 3.39225,-3.166226 0.32813,-11.617857 c 0.34413,-12.184622 1.00292,-14.332892 3.70707,-12.088644 1.36748,1.134907 1.56891,3.255354 1.29238,13.605006 l -0.32758,12.260556 -3.39832,3.503245 -3.39831,3.50324 0.71401,22.417228 0.71401,22.41723 -2.31569,2.55133 c -2.69416,2.96829 -5.49813,3.89835 -8.3157,2.75827 z m 31,0 c -1.1,-0.44509 -2.85033,-1.75473 -3.88962,-2.91031 -1.78743,-1.98742 -1.85054,-3.41646 -1.16704,-26.42673 0.66614,-22.425968 0.58657,-24.438258 -1.01886,-25.766988 -2.50895,-2.076516 -5.37695,-8.884991 -5.40252,-12.82527 -0.036,-5.544322 2.04329,-10.786931 5.67382,-14.305778 2.91969,-2.829875 4.12476,-3.310242 8.30422,-3.310242 4.17946,0 5.38453,0.480367 8.30422,3.310242 3.63053,3.518847 5.7098,8.761456 5.67382,14.305778 -0.0255,3.928095 -2.89125,10.746846 -5.38351,12.8095 -1.57967,1.30736 -1.66561,3.46245 -1.03682,25.999998 l 0.68562,24.57448 -2.37167,2.13506 c -2.94494,2.65116 -5.76778,3.46387 -8.37166,2.41026 z m 4.61973,-30.08127 -0.38027,-24.535938 3.38027,-4.797622 c 2.72037,-3.861024 3.36702,-5.710022 3.31237,-9.471313 -0.22283,-15.338372 -16.64137,-15.338372 -16.8642,0 -0.0547,3.76674 0.5921,5.610426 3.33318,9.500837 l 3.40108,4.827148 -0.67269,24.068138 c -0.36999,13.23747 -0.34399,24.39685 0.0578,24.7986 0.40176,0.40176 1.64899,0.59898 2.77162,0.43828 2.00339,-0.28678 2.03412,-0.74604 1.66088,-24.82813 z m 13.24939,18.55547 c -0.31928,-0.83202 1.0557,-3.69256 3.13916,-6.5308 9.80144,-13.35223 10.99259,-29.449798 3.2683,-44.168947 -3.05128,-5.814423 -3.01961,-7.819771 0.12351,-7.819771 2.20989,0 6.28294,7.281655 8.63917,15.44483 1.27377,4.41297 1.58435,8.14932 1.2053,14.5 -0.61072,10.232048 -3.04895,17.127608 -8.70527,24.619348 -4.10944,5.44291 -6.60542,6.73004 -7.67017,3.95534 z M 135.46428,72.073492 c -0.75899,-0.758995 -1.2,-4.57279 -1.2,-10.377555 0,-7.212336 0.34437,-9.463359 1.60821,-10.512253 2.81468,-2.335978 4.39179,1.379553 4.39179,10.346679 0,9.979196 -1.67807,13.665057 -4.8,10.543129 z"
       id="path12" />
  </g>
</svg>
