<?xml version="1.0" encoding="UTF-8"?><svg xmlns="http://www.w3.org/2000/svg" viewBox="0 0 167.46 191.1"><defs><style>.d{fill:#084a7a;}</style></defs><g id="a"/><g id="b"><g id="c"><g><path class="d" d="M83.54,67.33v-2.79c0-10.98,.04-21.95-.02-32.93-.03-4.73,.12-9.51-.52-14.17C81.4,5.87,72.62-.23,62.19,0c-12.34,.28-20.42,9.28-20.44,21.81-.06,35-.02,70.01,0,105.01,0,.81-.03,1.81,.4,2.39,.62,.86,1.65,1.95,2.51,1.96,.86,0,2.01-1.04,2.52-1.92,.49-.85,.43-2.07,.43-3.14,.02-34.92,.01-69.84,.02-104.77,0-6.9,3.76-12.5,9.83-14.76,9.63-3.59,20.12,3.53,20.18,13.85,.1,16.8-.01,33.59,.1,50.39,.01,1.47,.65,3.4,1.7,4.29,1.55,1.31,3.19-.12,4.7-1.06,1.32-.82,2.77-1.61,4.26-1.92,7.3-1.54,13.88-.53,18.86,5.75,.94,1.19,2.1,2.28,3.84,1.42,3.88-1.92,8.04-1.85,12.2-1.77,5.28,.09,10.09,2.03,12.26,6.72,2.32,4.99,5.72,5.82,10.34,5.25,.16-.02,.33,0,.5,0,9.29,.04,15.09,5.81,15.11,15.09,.02,11.81,.09,23.61-.04,35.42-.04,3.8-.2,7.7-1.08,11.37-4.08,16.97-14.59,28.1-31.51,32.49-5.29,1.37-11.02,1.44-16.55,1.47-11.96,.07-23.98,.33-35.89-.61-12.05-.95-22.78-6.12-30.67-15.4-12.6-14.81-24.63-30.11-36.82-45.26-4.13-5.14-4.46-12.23-.71-17.14,2.65-3.47,8.49-7.39,15.58-4.44,2.49,1.03,4.44,3.3,6.82,4.67,.92,.53,2.8,.63,3.46,.04,.71-.63,.57-2.29,.63-3.51,.02-.4-.48-.84-.78-1.24-4.19-5.56-14.27-8.69-22.91-4.95C3.46,100.79-.84,109.82,.14,117.25c.58,4.41,2.72,7.95,5.38,11.29,5.8,7.28,11.53,14.62,17.45,21.8,7.24,8.78,14.16,17.88,22.1,25.99,8.82,9.01,20.26,13.87,32.82,14.4,15.18,.64,30.41,.33,45.6,.04,7.33-.14,14.22-2.61,20.42-6.53,15.6-9.84,23.14-24.29,23.43-42.54,.2-12.3,.1-24.61,.01-36.92-.05-7.04-2.65-12.98-8.49-17.18-4.27-3.07-9.2-4.14-14.39-3.92-1.62,.07-2.47-.52-3.39-1.84-1.46-2.09-3.05-4.24-5.03-5.77-6.98-5.38-14.97-5.14-23.06-3.43-1.54,.32-2.52,.25-3.7-.9-5.24-5.15-11.7-6.65-18.8-5.77-2.27,.28-4.5,.87-6.96,1.36Zm-2.88,70.16c0,6.65,0,13.29,0,19.94,0,1.94,.75,3.48,2.82,3.81,1.61,.26,2.94-1.52,3.05-3.82,.01-.25,0-.5,0-.75,0-12.8,.01-25.59-.02-38.39,0-.97-.05-2.09-.53-2.87-.46-.75-1.51-1.62-2.27-1.59-.88,.04-1.98,.82-2.52,1.6-.5,.73-.52,1.89-.52,2.86-.04,6.4-.02,12.8-.02,19.19Zm29.83,.08c0-5.32,0-10.64,0-15.95,0-1.5,.05-2.99-.02-4.49-.09-1.87-1.02-3.37-2.96-3.34-1.93,.03-2.79,1.55-2.89,3.42-.01,.25,0,.5,0,.75,0,12.96,0,25.92,.01,38.88,0,.73-.07,1.66,.33,2.15,.71,.89,1.76,2.13,2.64,2.11,.9-.02,1.94-1.25,2.59-2.18,.41-.59,.3-1.59,.3-2.41,.02-6.31,.01-12.63,.01-18.94Zm23.95-.09c0-6.65,0-13.29,0-19.94,0-1.97-.77-3.46-2.82-3.79-1.64-.26-2.96,1.5-3.05,3.8-.01,.33,0,.66,0,1,0,12.63,0,25.26,0,37.89,0,.66-.21,1.51,.11,1.95,.76,1.06,1.91,2.79,2.68,2.68,1.11-.16,2.13-1.62,2.98-2.69,.33-.42,.11-1.29,.11-1.95,0-6.31,0-12.63,0-18.94Z"/><path class="d" d="M83.54,67.33c2.45-.49,4.69-1.08,6.96-1.36,7.1-.88,13.56,.62,18.8,5.77,1.18,1.16,2.16,1.23,3.7,.9,8.09-1.71,16.08-1.95,23.06,3.43,1.99,1.53,3.58,3.68,5.03,5.77,.92,1.32,1.77,1.91,3.39,1.84,5.19-.22,10.11,.85,14.39,3.92,5.83,4.2,8.44,10.14,8.49,17.18,.09,12.31,.18,24.61-.01,36.92-.29,18.26-7.83,32.7-23.43,42.54-6.2,3.91-13.09,6.39-20.42,6.53-15.2,.29-30.43,.6-45.6-.04-12.56-.53-24-5.39-32.82-14.4-7.94-8.1-14.86-17.21-22.1-25.99-5.92-7.18-11.65-14.52-17.45-21.8-2.66-3.34-4.8-6.88-5.38-11.29-.98-7.43,3.33-16.46,10.89-19.74,8.64-3.74,18.72-.61,22.91,4.95,.3,.4,.8,.84,.78,1.24-.06,1.22,.07,2.88-.63,3.51-.65,.59-2.54,.49-3.46-.04-2.39-1.37-4.34-3.64-6.82-4.67-7.09-2.94-12.94,.97-15.58,4.44-3.75,4.92-3.43,12,.71,17.14,12.19,15.15,24.22,30.45,36.82,45.26,7.89,9.28,18.62,14.45,30.67,15.4,11.91,.94,23.92,.68,35.89,.61,5.53-.03,11.26-.1,16.55-1.47,16.92-4.39,27.43-15.52,31.51-32.49,.88-3.67,1.04-7.57,1.08-11.37,.13-11.81,.06-23.61,.04-35.42-.02-9.27-5.82-15.05-15.11-15.09-.17,0-.33-.02-.5,0-4.62,.56-8.02-.26-10.34-5.25-2.18-4.69-6.98-6.63-12.26-6.72-4.16-.07-8.32-.15-12.2,1.77-1.74,.86-2.9-.23-3.84-1.42-4.97-6.27-11.56-7.28-18.86-5.75-1.49,.31-2.94,1.1-4.26,1.92-1.51,.94-3.15,2.36-4.7,1.06-1.05-.88-1.69-2.82-1.7-4.29-.12-16.79,0-33.59-.1-50.39-.06-10.32-10.55-17.44-20.18-13.85-6.07,2.26-9.83,7.86-9.83,14.76-.01,34.92,0,69.84-.02,104.77,0,1.06,.06,2.29-.43,3.14-.51,.88-1.66,1.93-2.52,1.92-.86,0-1.88-1.1-2.51-1.96-.43-.59-.39-1.58-.4-2.39-.02-35-.05-70.01,0-105.01C41.77,9.29,49.86,.28,62.19,0c10.43-.23,19.21,5.86,20.81,17.43,.64,4.66,.49,9.44,.52,14.17,.07,10.98,.02,21.95,.02,32.93v2.79Z"/><path class="d" d="M80.66,137.48c0-6.4-.02-12.8,.02-19.19,0-.97,.02-2.12,.52-2.86,.53-.78,1.63-1.56,2.52-1.6,.76-.03,1.81,.83,2.27,1.59,.47,.78,.52,1.9,.53,2.87,.03,12.8,.02,25.59,.02,38.39,0,.25,0,.5,0,.75-.11,2.3-1.44,4.08-3.05,3.82-2.06-.33-2.81-1.87-2.82-3.81-.01-6.65,0-13.29,0-19.94Z"/><path class="d" d="M110.49,137.56c0,6.31,0,12.63-.01,18.94,0,.82,.11,1.82-.3,2.41-.65,.93-1.69,2.17-2.59,2.18-.88,.02-1.93-1.22-2.64-2.11-.39-.5-.32-1.42-.33-2.15-.02-12.96-.01-25.92-.01-38.88,0-.25,0-.5,0-.75,.1-1.88,.96-3.39,2.89-3.42,1.94-.03,2.87,1.47,2.96,3.34,.07,1.49,.02,2.99,.02,4.49,0,5.32,0,10.64,0,15.95Z"/><path class="d" d="M134.44,137.48c0,6.31,0,12.63,0,18.94,0,.66,.22,1.53-.11,1.95-.85,1.07-1.86,2.54-2.98,2.69-.77,.11-1.91-1.62-2.68-2.68-.32-.45-.11-1.29-.11-1.95,0-12.63,0-25.26,0-37.89,0-.33-.01-.67,0-1,.09-2.3,1.42-4.06,3.05-3.8,2.06,.33,2.82,1.82,2.82,3.79,0,6.65,0,13.29,0,19.94Z"/></g></g></g></svg>