<?xml version="1.0" encoding="UTF-8" standalone="no"?>
<!-- Created with Inkscape (http://www.inkscape.org/) -->

<svg
   version="1.1"
   id="svg2"
   width="217.46489"
   height="217.75441"
   viewBox="0 0 217.46489 217.75441"
   xmlns="http://www.w3.org/2000/svg"
   xmlns:svg="http://www.w3.org/2000/svg">
  <defs
     id="defs6" />
  <g
     id="g8"
     transform="translate(-35.468109,-49.773875)">
    <path
       style="fill:#009147"
       d="m 105.90762,265.44079 c -6.558163,-3.21448 -66.618903,-63.19713 -68.964183,-68.87452 -2.11147,-5.1114 -1.93089,-14.34266 0.37721,-19.28212 1.2586,-2.69349 18.31769,-20.40768 52.22804,-54.2337 27.697413,-27.628535 51.272023,-50.871922 52.388023,-51.651971 4.61727,-3.227335 9.45124,-3.610829 26.48205,-2.100905 25.10663,2.225913 24.01858,2.373979 26.96333,-3.669262 6.152,-12.6252 23.13399,-19.093152 37.38289,-14.238064 6.4877,2.210579 14.79344,10.016789 17.68757,16.62379 6.84155,15.618514 -1.03781,34.882272 -16.65819,40.726602 -5.84119,2.18547 -14.70384,2.67334 -20.15638,1.10958 -2.38739,-0.6847 -3.98685,-0.55291 -5.9934,0.49384 -3.48543,1.81822 -7.58686,1.82763 -11.07198,0.0254 -6.12457,-3.16713 -7.51286,-12.525219 -2.61635,-17.636074 7.29748,-7.616927 19.45137,-2.85679 19.45137,7.618234 0,4.98194 0.97436,5.56956 9.35999,5.64492 9.40796,0.0845 18.06132,-5.42304 22.90449,-14.577938 2.9937,-5.658905 2.99549,-16.432225 0.004,-22.134453 -2.73869,-5.219807 -8.78473,-10.992618 -13.62493,-13.009205 -8.4176,-3.507052 -19.79568,-1.515232 -27.14323,4.751634 -3.04428,2.596523 -7.22496,9.365948 -6.3343,10.256606 0.2679,0.267894 5.13333,0.963874 10.81207,1.546624 15.89072,1.630696 18.53579,3.845076 20.00941,16.751311 0.70875,6.207345 0.6026,7.985961 -0.54669,9.160173 -2.13852,2.184908 -3.28389,0.325241 -3.98527,-6.470607 -0.76703,-7.431922 -2.17273,-11.264987 -4.60947,-12.569087 -1.03397,-0.553364 -16.82125,-2.359494 -35.08285,-4.013622 -30.72296,-2.782875 -33.50396,-2.892529 -37.23371,-1.468125 -3.10215,1.184721 -15.7108,13.23464 -54.726973,52.301839 -27.88289,27.91935 -51.17002,52.02925 -51.74919,53.57756 -1.47329,3.93858 -1.31156,11.15006 0.33564,14.96702 0.77616,1.79853 15.22164,16.93418 32.75,34.31473 28.490573,28.25029 31.796143,31.21429 36.111333,32.37996 3.8548,1.04129 5.6452,1.04292 9.5,0.009 4.39721,-1.17982 8.5198,-5.03187 55.50672,-51.86411 41.06581,-40.93063 51.07334,-51.41871 52.41505,-54.93192 1.47876,-3.87209 1.53109,-5.9312 0.4833,-19.01585 -1.54053,-19.23414 -1.54285,-19.17393 0.73762,-19.17393 1.04116,0 2.11514,0.57884 2.38662,1.28632 0.27148,0.70748 1.07546,8.53092 1.7866,17.38542 1.19949,14.93481 1.16274,16.45091 -0.50821,20.96368 -1.56265,4.22032 -8.50636,11.59523 -52.42961,55.6855 -29.86445,29.978 -52.23922,51.65758 -54.55602,52.86093 -6.22988,3.23583 -14.0614,3.42107 -20.07239,0.47479 z m 98.5,-159.65664 c 0,-0.55 -0.40186,-1 -0.89301,-1 -1.35468,0 -2.02969,-2.50704 -1.08608,-4.03383 0.6659,-1.077453 1.35877,-1.114207 3.40748,-0.18075 2.29046,1.0436 2.57161,0.95539 2.57161,-0.80686 0,-2.726384 -3.49634,-5.978561 -6.42742,-5.978561 -2.4363,0 -6.57258,4.090604 -6.57258,6.500001 0,2.4094 4.13628,6.5 6.57258,6.5 1.33508,0 2.42742,-0.45 2.42742,-1 z m -81.51306,101.25608 c -20.15937,-7.1915 -31.637343,-24.54037 -30.196113,-45.64119 1.3776,-20.16925 17.303923,-36.92738 37.905703,-39.88545 22.97026,-3.29816 44.88019,13.01074 48.81443,36.33556 3.30518,19.59532 -6.79755,38.70589 -25.01096,47.31135 -5.67403,2.68086 -7.77072,3.10904 -16.5,3.36958 -7.65621,0.22852 -11.17495,-0.12067 -15.01306,-1.48985 z m 30.58672,-5.0282 c 15.88098,-7.63825 25.91762,-26.13641 23.04116,-42.46632 -3.15983,-17.93862 -16.873,-31.63712 -34.78616,-34.74897 -10.97541,-1.90662 -23.53391,1.96066 -32.80717,10.10268 -7.51015,6.594 -13.534883,19.85683 -13.509623,29.74007 0.0433,16.93689 11.728643,33.1381 28.275063,39.20205 4.00822,1.46893 7.29317,1.84366 14.21307,1.62135 7.70145,-0.24742 9.94847,-0.74532 15.57366,-3.45086 z m -26.62947,-17.06136 c -10.30303,-4.81352 -15.56787,-16.97785 -12.35552,-28.54724 1.43306,-5.16119 9.13731,-12.79629 14.52735,-14.39696 6.08571,-1.80725 7.10425,-1.58161 7.58293,1.67986 0.39028,2.65914 0.12762,2.95122 -3.1365,3.48769 -4.83185,0.79414 -9.65819,3.91877 -12.12673,7.85099 -1.60238,2.55247 -1.96625,4.50256 -1.67816,8.99379 0.42399,6.61001 3.96903,12.03359 9.81354,15.0138 4.18047,2.13168 11.03663,2.26432 14.85944,0.28747 3.67018,-1.89793 7.91051,-6.97053 8.6627,-10.36299 1.28038,-5.77466 1.54518,-6.17293 4.1042,-6.17293 2.44069,0 2.53884,0.2114 2.06207,4.44123 -0.67367,5.97684 -4.97174,13.00907 -9.97459,16.3198 -5.45329,3.60882 -16.18018,4.28367 -22.34073,1.40549 z"
       id="path12" />
  </g>
</svg>
