<?xml version="1.0" encoding="UTF-8" standalone="no"?>
<!-- Created with Inkscape (http://www.inkscape.org/) -->

<svg
   version="1.1"
   id="svg2"
   width="1170.332"
   height="870.87561"
   viewBox="0 0 1170.332 870.87561"
   xmlns="http://www.w3.org/2000/svg"
   xmlns:svg="http://www.w3.org/2000/svg">
  <defs
     id="defs6" />
  <g
     id="g8"
     transform="translate(-69.072037,-36.441834)">
    <path
       style="fill:#f7b73d;stroke:none"
       d="m 174.42892,392.88233 v 289 92 c 0,13.457 2.584,29.841 -0.111,43 -1.531,7.472 -27.498,4 -33.889,4 -14.738,0 -31.07,-2.222 -44.999996,3.389 -23.1627,9.329 -34.067,40.106 -20.2778,61.611 16.102,25.112 45.388796,21 71.277796,21 h 182 669.99997 163.00001 c 22.49,0 50.03,4.279 66.92,-14 17.43,-18.866 13.6,-49.275 -6.92,-64.139 -16.99,-12.308 -42.22,-7.861 -62,-7.861 -5.71,0 -17.99,2.33 -22.89,-0.722 -3.12,-1.942 -2.11,-7.174 -2.11,-10.278 v -30 -125 -176 -56 c 0,-8.162 -1.52,-18.012 0.11,-26 2.31,-11.27 28.27,2.74 32.39,-7.083 1.91,-4.548 0.5,-12.04 0.5,-16.917 0,-13.127 -1.25,-26.945 0.08,-40 0.78,-7.656 5.86,-14.362 6.84,-22 2.91,-22.866 1.08,-46.93 1.08,-70 0,-10.801 2.28,-24.623 -0.89,-35 -4.31,-14.11 -17.48,-28.581 -25.44,-41 -18.64,-29.061 -37.21,-58.181 -56.23,-86.999996 -6.3,-9.5626 -12.12,-19.4464 -18.44,-29 -2.55,-3.8515 -4.63,-8.795805 -9,-10.888905 -5.51,-2.6404 -14.03,-1.1111 -20,-1.1111 h -46.00001 -164 -582.99997 c -4.311,0 -10.217,-1.0526 -13.972,1.5 -6.437,4.3756 -10.946,15.020605 -15.056,21.500005 -10.418,16.426 -21.144,32.632 -31.639,48.999996 -13.005,20.282 -25.507,41.065 -39.027,61 -7.329,10.806 -18.684,23.548 -22.806,36 -3.245,9.802 -0.5,24.677 -0.5,35 0,21.004 -1.996,43.109 0.083,64 0.734,7.373 4.211,13.93 5.667,21 3.102,15.056 0.25,33.606 0.25,49 0,3.675 -1.857,14.877 1.333,17.278 2.351,1.769 7.875,0.722 10.667,0.722 h 27 m 156,-335.999996 c -0.63,11.528 -10.715,24.732 -15.778,35 -11.983,24.303996 -23.94,48.650996 -35.833,72.999996 -4.014,8.217 -9.743,28.504 -17.611,33.278 -5.523,3.35 -19.356,0.722 -25.778,0.722 h -51 c -7.733,0 -17.754,1.649 -25,-1 3.439,-13.202 16.64,-27.698 24.306,-39 15.329,-22.602 28.898,-46.438 44.305,-68.999996 4.884,-7.151 9.694,-14.6082 14.195,-22 2.035,-3.3433 4.357,-9.0038 8.222,-10.5 6.468,-2.5039 17.068,-0.5 23.972,-0.5 h 56 m -46,140.999996 c 14.741,-34.736 33.967,-68.084 50.611,-101.999996 4.565,-9.303 8.869,-18.737 13.5,-28 1.52,-3.0398 2.961,-8.2319 6,-10.0555 7.861,-4.7167 27.745,-0.9445 36.889,-0.9445 h 35 c 2.927,0 10.314,-1.338 12.278,1.3334 2.245,3.0534 -2.713,12.4753 -4.028,15.6666 -6.203,15.054 -11.244,30.736996 -16.861,45.999996 -6.743,18.321 -13.144,36.716 -20,55 -2.308,6.155 -3.865,18.221 -8.806,22.667 -4.483,4.033 -19.717,1.333 -25.583,1.333 h -54 c -7.733,0 -17.754,1.649 -25,-1 m 261,-140.999996 c -0.048,11.4965 -4.291,23.803 -6.806,35 -5.086,22.650996 -10.232,45.291996 -14.805,67.999996 -1.605,7.968 -4.063,15.987 -5.306,24 -0.623,4.022 -0.801,10.48 -3.722,13.667 -3.68,4.016 -20.072,1.333 -25.361,1.333 h -54 c -7.733,0 -17.754,1.649 -25,-1 l 11.556,-33 25,-68.999996 9.611,-27 5.861,-11.2778 23.972,-0.7222 h 59 m 24.083,0.3334 c 4.535,-1.7675 12.072,-0.3334 16.917,-0.3334 h 38 c 3.673,0 14.664,-1.8438 17.056,1.3334 3.084,4.0986 0.944,15.6755 0.944,20.6666 v 54.999996 49 c 0,3.601 1.78,13.896 -2.25,15.667 -5.638,2.477 -16.587,0.333 -22.75,0.333 h -56 c -4.255,0 -21.949,2.37 -23.667,-2.111 -1.834,-4.785 2.508,-16.012 3.806,-20.889 4.078,-15.321 7.617,-31.39 10.472,-47 3.257,-17.812 8.481,-35.138996 11.333,-52.999996 0.663,-4.1471 1.947,-17.0326 6.139,-18.6666 m 95.028,0 c 4.386,-1.833 12.156,-0.3334 16.889,-0.3334 h 38 c 4.021,0 14.481,-1.8581 17.361,1.3334 3.768,4.1748 3.054,13.4791 4.639,18.6666 5.752,18.824 10.552,40.474996 13.083,59.999996 1.954,15.072 6.211,31.314 10.223,46 0.861,3.152 4.479,14.02 0.583,15.667 -5.787,2.446 -16.606,0.333 -22.889,0.333 h -55 c -4.633,0 -21.38,2.517 -24.278,-1.333 -2.461,-3.271 -0.722,-12.683 -0.722,-16.667 v -46 -58.999996 c 0,-3.8514 -2.051,-16.9275 2.111,-18.6666 m 228.88897,140.666596 -25,1 h -53 l -25.66697,-0.722 -3.639,-9.278 -5.75,-28 -15.361,-70.999996 -6.583,-33 h 60.99997 l 22.75,0.9445 5.083,11.0555 9.389,26 25,68.999996 11.778,34 m 126.00001,0 c -7.246,2.649 -17.267,1 -25.00001,1 h -54 c -5.557,0 -20.351,2.597 -24.528,-1.333 -5.364,-5.048 -7.294,-17.845 -9.694,-24.667 -6.241,-17.737 -12.871,-35.299 -19.222,-53 l -17,-46.999996 c -1.131,-3.1512 -6.291,-11.5051 -4.528,-14.6666 1.54,-2.7635 10.257,-1.3334 12.972,-1.3334 h 39 c 7.716,0 26.282,-3.4484 32.75,0.7222 2.879,1.8566 4.12,7.3362 5.639,10.2778 4.449,8.618 8.728,17.295 13,26 11.144,22.709996 22.526,45.298996 33.66701,67.999996 5.66,11.534 13.894,23.474 16.944,36 m 126,1 h -71 c -8.38,0 -22.11,2.669 -29.92,-0.333 -3.22,-1.238 -4.56,-5.844 -5.97,-8.667 -4.17,-8.347 -8.61,-16.551 -12.58,-25 -11.38,-24.204 -23.487,-48.135 -35.58601,-71.999996 -5.199,-10.256 -15.316,-24.4997 -15.944,-36 h 58.00001 c 5.79,0 17.76,-2.2863 22.78,0.7222 3.06,1.8389 4.76,6.3969 6.66,9.2778 5.47,8.2903 10.87,16.64 16.23,25 16.23,25.322996 32.09,50.969996 48.77,75.999996 5.8,8.694 16.91,20.662 18.56,31 m -995.99998,98 v -55 l 0.722,-20.667 23.278,-1.333 h 61 l 21.667,1.333 1.333,15.667 v 43 l -1.333,16.278 -28.667,0.722 h -78 m 236,0 h -78 l -28.667,-0.722 -1.333,-16.278 v -43 l 1.333,-15.667 21.667,-1.333 h 61 l 23.278,1.333 0.722,20.667 v 55 m 128,0 h -107 v -55 c 0,-4.641 -2.184,-16.787 0.722,-20.5 3.103,-3.965 18.566,-1.5 23.278,-1.5 h 62 c 4.287,0 17.407,-2.168 20.278,1.5 2.906,3.713 0.722,15.859 0.722,20.5 v 55 m 23.25,-76.667 c 5.87,-2.579 17.33,-0.333 23.75,-0.333 h 56 c 5.395,0 20.226,-2.623 24.5,0.722 3.139,2.457 1.5,11.721 1.5,15.278 v 44 c 0,3.633 1.89,14.995 -2.111,16.667 -6.06,2.532 -17.318,0.333 -23.889,0.333 h -56 c -5.537,0 -20.214,2.629 -24.667,-0.722 -2.989,-2.25 -1.333,-11.883 -1.333,-15.278 v -44 c 0,-3.718 -1.88,-14.852 2.25,-16.667 m 125.75,76.667 v -55 c 0,-4.641 -2.184,-16.787 0.722,-20.5 3.103,-3.965 18.566,-1.5 23.278,-1.5 h 62 c 4.901,0 18.036,-2.298 21.667,1.333 2.966,2.966 1.333,11.766 1.333,15.667 v 43 c 0,3.535 1.758,13.951 -1.333,16.278 -5.038,3.791 -22.357,0.722 -28.667,0.722 h -79 m 235.99997,0 h -78 l -28.66697,-0.722 -1.333,-16.278 v -43 l 1.5,-15.667 21.49997,-1.333 h 61 l 23.278,1.333 0.722,20.667 v 55 m 23.028,-76.667 c 6.416,-2.385 17.128,-0.333 23.972,-0.333 h 56.00001 c 5.391,0 20.72,-2.617 24.67,1.333 2.96,2.966 1.33,11.766 1.33,15.667 v 43 c 0,3.633 1.89,14.995 -2.11,16.667 -6.06,2.532 -17.319,0.333 -23.89,0.333 h -56.00001 c -5.731,0 -21.068,2.739 -25.667,-0.722 -2.989,-2.25 -1.333,-11.883 -1.333,-15.278 v -44 c 0,-4.299 -2.015,-14.792 3.028,-16.667 m 232.97201,76.667 h -107 v -55 l 0.72,-20.667 23.28,-1.333 h 62 l 20.28,1.333 0.72,20.667 v 55 m -994.88898,23.333 c 5.104,-2.133 14.368,-0.333 19.889,-0.333 h 46 161 558.99997 143.00001 41 c 5,0 13.26,-1.6 17.89,0.333 3.5,1.462 2.11,8.617 2.11,11.667 v 28 c 0,3.013 1.01,8.323 -1.33,10.667 -2.97,2.966 -11.77,1.333 -15.67,1.333 h -44 -175.00001 -599.99997 -104 c -15.072,0 -34.262,3.238 -48.917,-0.111 -4.127,-0.943 -3.083,-6.694 -3.083,-9.889 v -30 c 0,-3.05 -1.388,-10.205 2.111,-11.667 m 37,73 c 4.626,-1.933 12.893,-0.333 17.889,-0.333 h 41 143 496.99997 160.00001 41 c 3.79,0 12.55,-1.627 15.67,0.722 3.47,2.618 1.33,16.189 1.33,20.278 v 62 252 70 c 0,4.278 2.34,20.807 -2.11,22.667 -8.92,3.728 -26.17,0.333 -35.89,0.333 h -87.00001 -144 -37.99997 c -3.393,0 -10.849,1.399 -13.667,-0.722 -3.665,-2.759 -1.333,-17.916 -1.333,-22.278 v -68 -223 -57 c 0,-6.953 1.891,-16.451 -3.083,-22 -4.941,-5.511 -12.168,-4 -18.917,-4 h -47 c -64.567,0 -129.467,-1.942 -194,0 -5.839,0.176 -10.15,4.089 -10.917,10 -1.919,14.806 -0.083,31.06 -0.083,46 v 183 115 30 c 0,2.995 1.166,9.158 -0.722,11.667 -2.474,3.287 -14.464,1.333 -18.278,1.333 h -56 -174 -51 c -5.784,0 -15.546,1.899 -20.889,-0.333 -4.382,-1.831 -2.111,-17.495 -2.111,-21.667 v -69 -256 -61 c 0,-3.959 -2.126,-17.896 2.111,-19.667 m 40.889,31.167 c -6.419,2.324 -7,8.674 -7,14.5 v 40 135 36 c 0,4.831 -1.128,11.325 1.556,15.611 3.343,5.341 10.014,4.389 15.444,4.389 h 41 135 37 c 5.156,0 12.243,1.233 17,-1.111 5.719,-2.818 5,-9.516 5,-14.889 v -39 -139 -34 c 0,-4.941 0.574,-11.011 -3.111,-14.917 -4.195,-4.446 -11.364,-3.083 -16.889,-3.083 h -41 -129 -38 c -5.101,0 -12.159,-1.252 -17,0.5 m 600.99997,0 c -5.39,1.969 -6.415,8.463 -6.917,13.5 -1.333,13.394 -0.083,27.536 -0.083,41 v 135 35 c 0,5.255 -0.65,12.4 2.5,16.972 3.552,5.155 10.061,4.028 15.5,4.028 h 42 131.00001 38 c 5.39,0 12.85,1.316 17.92,-0.722 5.56,-2.235 6.07,-9.153 6.08,-14.278 v -40 -138 -34 c 0,-5.491 0.58,-11.38 -3.42,-15.778 -4.14,-4.549 -11.03,-3.222 -16.58,-3.222 h -41 -129.00001 -38 c -5.367,0 -12.916,-1.357 -18,0.5 m -585.99997,17.75 c 14.842,-3.648 34.683,-0.25 50,-0.25 h 107 38 c 3.885,0 10.697,-1.306 13.889,1.333 2.985,2.469 2.111,7.24 2.111,10.667 v 30 122 34 c 0,3.514 0.913,9.751 -3.111,11.5 -3.756,1.632 -9.857,0.5 -13.889,0.5 h -33 -115 -36 c -3.621,0 -10.849,1.203 -13.278,-2.306 -1.85,-2.672 -0.722,-8.578 -0.722,-11.694 v -31 -118 -35 c 0,-4.27 -1.346,-10.436 4,-11.75 m 602.99997,0 c 14.842,-3.648 34.683,-0.25 50,-0.25 h 107.00001 38 c 3.88,0 10.7,-1.306 13.89,1.333 2.98,2.469 2.11,7.24 2.11,10.667 v 30 122 34 c 0,3.514 0.91,9.751 -3.11,11.5 -3.76,1.632 -9.86,0.5 -13.89,0.5 h -33 -115.00001 -37 c -3.496,0 -10.019,1.201 -12.278,-2.25 -1.94,-2.964 -0.722,-9.331 -0.722,-12.75 v -31 -117 -35 c 0,-4.27 -1.346,-10.436 4,-11.75 m -315.88897,2.083 15.889,-0.333 h 36 126 40 l 13.278,1.333 0.722,13.667 v 36 138 143 34 l -2.111,10.667 -15.889,0.333 h -36 -126 -40 l -13.278,-1.333 -0.722,-13.667 v -36 -138 -143 -34 l 2.111,-10.667 m 193.889,121.306 c -3.14,1.25 -6.219,3.964 -6.889,7.361 -2.309,11.709 -0.111,26.047 -0.111,38 0,5.065 -1.284,12.208 0.5,17 1.753,4.708 7.881,6.957 12.5,5.528 6.272,-1.942 7,-7.921 7,-13.528 0,-14.44 2.691,-31.882 -0.25,-46 -1.16,-5.57 -6.874,-10.701 -12.75,-8.361 m -625,275.611 c 9.024,-1.796 19.797,-0.25 29,-0.25 h 59 185 578.99997 212.00001 c 8.95,0 20.36,-1.888 29,0.472 15.73,4.298 23.99,23.122 13.14,36.445 -7.11,8.724 -15.95,8.083 -26.14,8.083 h -44 -202.00001 -574.99997 -179 -56 c -8.419,0 -18.821,1.647 -27,-0.417 -23.641596,-5.965 -19.009696,-39.951 3,-44.333 z"
       id="path200" />
    <path
       style="fill:#000000"
       id="path126"
       d="" />
    <path
       style="fill:#000000"
       id="path32"
       d="" />
    <path
       style="fill:#000000"
       id="path12"
       d="" />
  </g>
</svg>
