<?xml version="1.0" encoding="UTF-8"?><svg xmlns="http://www.w3.org/2000/svg" viewBox="0 0 215.6 191.58"><defs><style>.d{fill:#084a7a;}</style></defs><g id="a"/><g id="b"><g id="c"><g><path class="d" d="M140.73,161.85c-1.86-.06-2.69,1.39-2.96,3.1-.07,.41-.02,.83-.03,1.25-.18,12.02-7.62,19.42-19.56,19.43-30.93,0-61.87,0-92.8,0-11.86,0-19.47-7.63-19.48-19.51,0-46.89,0-93.78,0-140.67,0-11.87,7.63-19.52,19.47-19.53,12.31-.01,24.61,0,36.92,0h15.56v3.01c0,13.72-.04,27.44,.01,41.15,.03,8.73,6.06,15.49,14.49,15.61,16.38,.23,32.76,.07,49.14,.11,1.85,0,2.22-.77,1.99-2.49-.44-3.34-2.25-5.8-4.53-8.08-16.89-16.86-33.8-33.7-50.6-50.64C85.2,1.43,81.64-.01,77.23,0,60.02,.06,42.81-.01,25.6,.06c-2.38,.01-4.84,.27-7.13,.89C6.9,4.07,.02,13.18,.01,25.34,0,72.32,0,119.29,.04,166.27c0,2.14,.23,4.34,.75,6.41,2.94,11.56,12.12,18.8,24.12,18.83,31.27,.07,62.53,.14,93.8-.04,10.05-.06,17.9-4.49,22.45-13.83,1.93-3.96,2.56-8.22,2.45-12.58-.05-1.78-1.08-3.14-2.87-3.19Zm-6.41-102.07c-.51,.03-1.29,.11-2.07,.11-12.63,0-25.26,.01-37.89,0-7.06,0-10.6-3.52-10.6-10.53-.01-13.37,0-26.74,0-40.13,16.92,16.92,33.74,33.73,50.57,50.56Z"/><path class="d" d="M214.05,56.38c-5.12-7.5-11.5-14.04-19.09-19.02-4.6-3.02-9.16-1.53-13.82,3.12-25.64,25.62-51.28,51.24-76.86,76.92-1.04,1.05-1.82,2.56-2.22,4-.93,3.35-1.55,6.79-2.29,10.19-1.31,5.99-2.61,11.98-3.9,17.88-3.29,.74-5.9,.18-7.87-2.52-.73-.99-1.74-1.78-2.62-2.66-6.93-6.93-8.26-6.95-15.08-.07-1.04,1.05-1.85,2.33-3.07,3.88-.73-1.62-1.08-2.36-1.4-3.11-2.96-7.04-5.89-14.09-8.86-21.13-1.43-3.41-3.25-4.73-6.29-4.69-3.22,.04-4.89,2.01-6,4.75-2.75,6.76-5.86,13.39-8.21,20.29-1.49,4.37-3.63,6.52-8.3,5.5-.16-.03-.33,0-.5,0-1.99,.07-3.58,.96-3.54,3.02,.03,1.91,1.57,2.82,3.46,2.85,2.08,.04,4.17-.13,6.23,.05,2.73,.23,4.24-.86,5.28-3.41,3.44-8.45,7.08-16.83,10.65-25.23,.27-.64,.62-1.25,1.11-2.22,.56,1.16,.97,1.94,1.32,2.75,3.53,8.32,7.04,16.66,10.59,24.98,1.53,3.59,3.55,3.87,6.39,1.15,2.93-2.8,5.99-5.47,8.58-7.82,2.75,2.49,5.75,5.25,8.82,7.92,.84,.74,1.89,1.69,2.88,1.73,3.81,.17,7.73,.52,11.44-.14,9.71-1.71,19.35-3.85,28.99-5.97,1.5-.33,3.09-1.21,4.19-2.3,25.57-25.46,51.07-50.98,76.58-76.49,.76-.76,1.52-1.54,2.2-2.38,2.93-3.68,3.81-7.99,1.2-11.81Zm-27.79,30.29c-18.24,18.19-36.46,36.39-54.64,54.64-1.65,1.65-3.35,2.69-5.71,3.11-7.03,1.24-14,2.74-21,4.13-.64,.13-1.3,.14-2.38,.26,.45-2.51,.85-4.82,1.3-7.13,1.14-5.86,2.26-11.73,3.5-17.57,.23-1.07,.8-2.22,1.56-2.98,19.06-19.13,38.16-38.21,57.26-57.3,.17-.17,.38-.32,.64-.54,7.14,7.14,14.18,14.19,21.84,21.86-.72,.46-1.69,.86-2.37,1.54Zm21.75-21.54c-4.94,5.37-10,10.63-14.9,15.81-7.77-7.8-14.85-14.9-21.99-22.07,5.03-5.04,10.13-10.27,15.38-15.34,2.4-2.32,4.95-2.39,7.35-.11,4.87,4.63,9.63,9.39,14.24,14.27,2.17,2.3,2.06,5.1-.08,7.44Z"/></g></g></g></svg>