<?xml version="1.0" encoding="UTF-8"?><svg xmlns="http://www.w3.org/2000/svg" viewBox="0 0 197.49 191.33"><defs><style>.d{fill:#eab520;}</style></defs><g id="a"/><g id="b"><g id="c"><path class="d" d="M194.11,81.99c2.74-2.71,4.2-5.76,2.89-9.65-1.19-3.52-3.75-5.31-7.36-5.85-18.31-2.75-36.61-5.58-54.94-8.25-1.84-.27-2.71-1.02-3.46-2.58-7.82-16.32-15.7-32.62-23.58-48.91-.57-1.19-1.22-2.38-2.05-3.4-2.28-2.82-5.28-3.87-8.84-3.11-3.49,.74-5.46,3.19-6.93,6.24-7.91,16.46-15.84,32.9-23.83,49.32-.44,.91-1.41,2.06-2.28,2.2-9.1,1.48-18.22,2.77-27.34,4.14-9.77,1.46-19.54,2.9-29.3,4.45-4,.64-6.25,3.19-6.95,7.13-.62,3.49,.98,6.09,3.33,8.41,11.52,11.42,22.72,23.18,34.69,34.1,5.11,4.66,5.83,9,4.56,15.32-3.18,15.77-5.62,31.68-8.38,47.53-.72,4.11,.2,7.63,3.65,10.16,3.53,2.59,7.08,1.97,10.74,.02,15.9-8.48,31.86-16.86,47.76-25.35,1.57-.84,2.74-.89,4.31-.05,15.87,8.53,31.78,16.99,47.71,25.42,1.65,.87,3.51,1.37,5.28,2.03,5.63-.06,10.11-5.24,9.17-10.93-3.05-18.32-6.14-36.64-9.25-54.96-.34-1.99-.08-3.46,1.54-5.04,13.03-12.73,25.91-25.61,38.86-38.42Zm-46.34,43.77c3.17,18.31,6.24,36.64,9.21,54.99,.2,1.25-.33,3.28-1.23,3.86-.9,.58-2.88,.19-4.05-.42-15.83-8.28-31.66-16.58-47.36-25.09-3.93-2.13-7.25-2.17-11.2-.05-16.03,8.62-32.19,17-48.31,25.45-2.81,1.47-4.57,.55-4.59-2.69,.85-5.18,1.74-10.75,2.67-16.31,2.25-13.42,4.52-26.84,6.78-40.25,.6-3.53-.29-6.37-3-8.96-13.03-12.49-25.92-25.13-38.87-37.7-1.3-1.26-2.83-2.78-1.77-4.46,.78-1.23,2.67-2.22,4.2-2.45,17.83-2.67,35.68-5.2,53.53-7.69,3.56-.5,5.78-2.3,7.34-5.52,7.95-16.46,15.99-32.87,24.12-49.24,.74-1.49,2.31-2.57,3.5-3.84,1.18,1.3,2.73,2.43,3.49,3.94,8.06,16.22,16.07,32.46,23.89,48.8,1.79,3.75,4.4,5.44,8.38,5.98,17.78,2.43,35.54,4.98,53.28,7.63,1.34,.2,3.33,1.39,3.56,2.44,.27,1.25-.66,3.22-1.7,4.24-12.86,12.67-25.76,25.29-38.82,37.75-2.95,2.81-3.71,5.75-3.04,9.59Z"/></g></g></svg>