<?xml version="1.0" encoding="UTF-8"?><svg xmlns="http://www.w3.org/2000/svg" viewBox="0 0 215.15 191.41"><defs><style>.d{fill:#bf262e;}</style></defs><g id="a"/><g id="b"><g id="c"><g><path class="d" d="M214.81,39.31c-.59-.68-1.95-1.25-2.76-1.04-1.05,.28-2.13,1.2-2.77,2.15-5.98,8.89-11.85,17.85-17.78,26.78-5.01,7.54-9.92,15.15-15.11,22.57-8.24,11.78-27.17,10.89-35.35,2.3-5.9-6.2-12.2-12.03-18.11-18.23-9.45-9.91-7.88-27.67,3.93-35.78,15.75-10.81,31.85-21.1,47.8-31.62,.62-.41,1.57-.73,1.77-1.3,.39-1.14,.86-2.69,.38-3.56-.45-.82-2.06-1.27-3.2-1.35-.86-.05-1.83,.65-2.65,1.18-3.55,2.31-7.07,4.67-10.59,7.03-12.42,8.33-25.03,16.38-37.18,25.09-9.16,6.56-13.31,15.92-12.08,27.32,.63,5.79,2.7,11.07,6.79,16.2-.86,.61-1.79,1.08-2.49,1.78-24.07,24.14-48.12,48.31-72.16,72.47-5.22,5.25-10.64,10.31-15.56,15.83-7.52,8.45-2.62,21.97,8.52,24.02,5.66,1.04,10.13-1.15,14.1-5.11,25.7-25.69,51.45-51.32,77.19-76.97,3.75-3.73,7.52-7.44,11.28-11.15,.67,.39,1.12,.6,1.53,.88,14.49,10.03,33.91,5.95,43.43-8.8,10.09-15.63,20.39-31.12,30.6-46.68,.27-.42,.7-.84,.73-1.28,.06-.93,.23-2.16-.26-2.73Zm-85.31,59.42c-28.09,27.85-56.17,55.71-84.25,83.57-3.48,3.45-7.77,3.9-11.36,1.12-3.83-2.96-4.79-7.88-2.28-12,.51-.84,1.17-1.62,1.87-2.31,28.9-28.92,57.82-57.83,86.73-86.74,.4-.4,.84-.77,1.07-.99,4.35,4.36,8.5,8.52,12.92,12.95-1.44,1.34-3.13,2.82-4.71,4.39Z"/><path class="d" d="M57.08,119.59c1.34-1.4,2.56-2.67,3.26-3.4-10.99-11.28-21.87-22.87-33.21-33.98-11.13-10.9-18.32-23.65-20.64-39.11-1.74-11.57-.1-22.66,4.62-33.32,.39-.88,1.04-1.73,1.76-2.38,2.79-2.51,5.69-2.15,8.91,1.06,23.88,23.87,47.75,47.74,71.61,71.64,.63,.63,1.04,1.5,1.67,2.42,1.71-1.9,2.93-3.25,4.62-5.14-.95-.72-1.76-1.2-2.4-1.84-20.13-20.1-40.23-40.21-60.35-60.32-3.76-3.76-7.57-7.48-11.28-11.3C18.72-3.19,8.44,.22,5.57,7.3,.95,18.67-1,30.46,.49,42.66c2,16.43,9.18,30.33,21,41.9,11.35,11.11,22.6,22.32,33.9,33.49,.58,.57,1.19,1.1,1.68,1.54Z"/><path class="d" d="M138.79,117.81c-.45-.45-.97-.84-1.57-1.34-1.3,1.2-2.49,2.32-3.7,3.43,.22,.37,.31,.61,.47,.77,16.34,16.57,32.67,33.16,49.06,49.68,2.98,3,3.83,6.93,1.91,10.6-1.94,3.7-5.72,5.37-9.74,4.73-2.57-.41-4-2.11-5.66-3.75-16.03-15.83-32.08-31.63-48.13-47.43-.39-.39-.86-.7-1.39-1.13-1.22,1.34-2.33,2.54-3.83,4.17,.86,.64,1.68,1.1,2.32,1.73,15.36,15.32,30.69,30.67,46.03,46.01,.71,.7,1.4,1.42,2.15,2.08,8.49,7.54,21.12,3.91,24.22-7.05,1.69-5.97-.44-10.85-4.7-15.09-15.84-15.78-31.63-31.61-47.45-47.41Z"/><path class="d" d="M154.9,69.54c-.84,1.98,.57,3.97,3.34,3.96,.53-.37,1.66-.92,2.49-1.75,13.43-13.49,26.83-27.01,40.23-40.53,.58-.58,1.34-1.24,1.46-1.95,.15-.96,.08-2.32-.5-2.92-.58-.6-1.96-.76-2.9-.6-.79,.14-1.53,.93-2.17,1.56-13.41,13.27-26.81,26.56-40.19,39.86-.69,.69-1.37,1.49-1.75,2.37Z"/><path class="d" d="M142.43,56.42c-1.1,2.34-.04,3.92,2.71,4.29,1.06-.66,2.3-1.15,3.16-2.01,6.44-6.38,12.81-12.83,19.19-19.26,7.14-7.2,14.26-14.42,21.41-21.62,1.34-1.34,1.55-2.91,.34-4.2-1.24-1.32-2.86-1.07-4.25,.09-.38,.32-.72,.69-1.07,1.04-13.22,13.11-26.45,26.22-39.66,39.35-.69,.69-1.42,1.45-1.82,2.32Z"/></g></g></g></svg>